<?xml version="1.0" encoding="UTF-8" standalone="no"?>
<!-- Created with Inkscape (http://www.inkscape.org/) -->

<svg
   xmlns:dc="http://purl.org/dc/elements/1.1/"
   xmlns:cc="http://creativecommons.org/ns#"
   xmlns:rdf="http://www.w3.org/1999/02/22-rdf-syntax-ns#"
   xmlns:svg="http://www.w3.org/2000/svg"
   xmlns="http://www.w3.org/2000/svg"
   xmlns:sodipodi="http://sodipodi.sourceforge.net/DTD/sodipodi-0.dtd"
   xmlns:inkscape="http://www.inkscape.org/namespaces/inkscape"
   width="1563"
   height="998.81458"
   id="svg2"
   sodipodi:version="0.32"
   inkscape:version="0.48.0 r9654"
   version="1.0"
   sodipodi:docname="Carte_localisation_Montréal_-_Mercier–Hochelaga-Maisonneuve.svg"
   inkscape:output_extension="org.inkscape.output.svg.inkscape">
  <defs
     id="defs4">
    <inkscape:perspective
       sodipodi:type="inkscape:persp3d"
       inkscape:vp_x="0 : 526.18109 : 1"
       inkscape:vp_y="0 : 1000 : 0"
       inkscape:vp_z="744.09448 : 526.18109 : 1"
       inkscape:persp3d-origin="372.04724 : 350.78739 : 1"
       id="perspective10" />
    <inkscape:perspective
       id="perspective2390"
       inkscape:persp3d-origin="372.04724 : 350.78739 : 1"
       inkscape:vp_z="744.09448 : 526.18109 : 1"
       inkscape:vp_y="0 : 1000 : 0"
       inkscape:vp_x="0 : 526.18109 : 1"
       sodipodi:type="inkscape:persp3d" />
    <inkscape:perspective
       id="perspective3233"
       inkscape:persp3d-origin="372.04724 : 350.78739 : 1"
       inkscape:vp_z="744.09448 : 526.18109 : 1"
       inkscape:vp_y="0 : 1000 : 0"
       inkscape:vp_x="0 : 526.18109 : 1"
       sodipodi:type="inkscape:persp3d" />
    <inkscape:perspective
       id="perspective3374"
       inkscape:persp3d-origin="372.04724 : 350.78739 : 1"
       inkscape:vp_z="744.09448 : 526.18109 : 1"
       inkscape:vp_y="0 : 1000 : 0"
       inkscape:vp_x="0 : 526.18109 : 1"
       sodipodi:type="inkscape:persp3d" />
  </defs>
  <sodipodi:namedview
     id="base"
     pagecolor="#ffffff"
     bordercolor="#666666"
     borderopacity="1.0"
     inkscape:pageopacity="0.0"
     inkscape:pageshadow="2"
     inkscape:zoom="0.37019938"
     inkscape:cx="871.94216"
     inkscape:cy="129.00263"
     inkscape:document-units="px"
     inkscape:current-layer="layer1"
     showgrid="false"
     inkscape:window-width="1600"
     inkscape:window-height="990"
     inkscape:window-x="235"
     inkscape:window-y="188"
     inkscape:window-maximized="0" />
  <metadata
     id="metadata7">
    <rdf:RDF>
      <cc:Work
         rdf:about="">
        <dc:format>image/svg+xml</dc:format>
        <dc:type
           rdf:resource="http://purl.org/dc/dcmitype/StillImage" />
        <dc:title></dc:title>
      </cc:Work>
    </rdf:RDF>
  </metadata>
  <g
     inkscape:label="Calque 1"
     inkscape:groupmode="layer"
     id="layer1"
     transform="translate(393,-52.375)">
    <path
       style="fill:#ffffff;fill-opacity:1;fill-rule:evenodd;stroke:none;stroke-width:1px;stroke-linecap:butt;stroke-linejoin:miter;stroke-opacity:1"
       d="M 688.50798,820.12002 L 693.25267,825.91909 L 732.7918,825.91909 L 811.87005,877.58355 L 816.08756,894.45358 L 869.33358,944.00928 L 879.35016,958.77056 L 887.25799,962.46087 L 997.96754,922.92175 L 1013.256,920.81299 L 1019.5823,917.64986 L 1052.7951,868.09416 L 1104.9868,815.37533 L 1112.3674,817.48408 L 1120.2752,812.73938 L 1135.0365,792.70623 L 1141.3628,746.31365 L 1142.4171,743.15052 L 1147.1618,734.18832 L 1141.89,712.5736 L 1165.6134,621.8972 L 1202.5166,600.28248 L 1205.6797,593.42903 L 1269.4695,482.71948 L 1345.9118,348.28645 L 1355.4012,344.06894 L 1358.0372,335.63393 L 1378.0703,280.80634 L 1410.2288,280.80634 L 1415.5007,270.78976 C 1415.5007,270.78976 1319.5524,161.66178 1317.4437,161.66178 C 1315.3349,161.66178 1159.8144,208.05435 1159.8144,208.05435 L 1099.7149,206.99998 L 1092.3343,214.9078 L 993.22284,343.01457 L 971.08093,352.50396 L 966.33624,356.72147 L 933.65056,465.84945 L 772.33093,492.20887 L 721.72084,509.60609 L 699.57893,534.91113 L 667.94763,544.40052 L 657.40387,535.43831 L 649.49604,540.18301 L 570.94498,531.22081 L 500.30174,496.95357 L 432.29444,525.42174 L 406.46221,555.99866 L 402.24471,549.14521 L 394.86407,550.72678 L 373.77654,563.90648 L 363.75996,576.03182 L 351.63463,580.24932 L 342.67242,593.95622 L 335.81898,593.42903 L 325.8024,600.80967 L 203.4947,647.72943 L 183.98873,627.16909 L 179.24404,624.53314 L 173.97215,631.38659 L 139.17772,655.63726 L 95.948279,676.1976 L 90.676395,751.58554 L 85.9317,761.07493 L 87.513265,771.0915 L 93.839525,784.7984 L 130.74271,792.17904 L 138.65053,795.34217 L 146.03117,800.61405 L 162.9012,797.97811 L 201.38595,786.37997 L 240.92507,788.48872 L 249.88728,791.12466 L 286.26327,776.89058 L 367.45028,761.60211 L 403.82627,780.05371 L 408.57097,783.21684 L 419.11473,784.27121 L 468.67044,772.67307 L 479.74139,749.47678 L 494.50267,736.29707 L 533.51461,739.4602 L 550.38463,756.33023 L 559.87402,768.98275 L 655.29511,790.07029 L 688.50798,820.12002 z"
       id="path3656"
       transform="translate(-393,51.375)" />
    <path
       style="fill:#ffc2c2;fill-rule:evenodd;stroke:none;stroke-width:1px;stroke-linecap:butt;stroke-linejoin:miter;stroke-opacity:1;fill-opacity:1"
       d="M -175.48132,540.15601 C -168.24361,542.64289 -153.39972,545.87239 -151.0515,535.52349 C -148.42216,525.99752 -137.88729,524.19541 -129.78367,523.6154 C -119.20447,525.0498 -108.94992,520.60926 -108.44138,508.53667 C -101.83495,500.96433 -90.434666,502.26987 -82.387661,497.64041 C -76.741913,490.4848 -77.994577,479.5323 -71.37618,475.1779 C -62.65975,485.53584 -51.845979,470.69081 -42.086436,479.05984 C -35.232184,478.77368 -30.273503,468.25888 -23.027782,476.59534 C -14.197857,480.67182 -5.1841006,483.88825 4.3209369,486.09133 C 13.67552,487.30094 16.851872,494.30236 19.470519,502.24077 C 25.652017,508.70577 30.932917,519.50395 29.182056,528.07399 C 16.038076,527.86742 19.174237,546.84003 7.5675619,547.65835 C -4.4206655,552.54697 7.8020994,566.62603 0.87360607,574.10217 C -9.2410049,574.03045 -6.1272005,590.11326 -15.603699,591.26926 C -24.906836,594.39211 -33.361648,604.76728 -43.153849,596.92246 C -53.164415,596.64813 -46.63278,607.71295 -41.743082,609.27391 C -40.028274,617.29745 -54.346026,597.89218 -51.846187,611.83133 C -61.355235,614.04209 -68.136018,622.49205 -76.170284,627.53916 C -85.523026,627.83412 -89.901884,644.29983 -99.493718,634.20404 C -107.02043,630.72417 -120.51677,635.92292 -115.99765,645.0042 C -125.352,649.3902 -133.49013,631.35816 -143.21966,639.10007 C -148.04621,630.19863 -158.40133,626.32182 -158.39047,614.27498 C -164.30606,606.92822 -166.5769,596.32208 -178.03711,596.6134 C -185.21604,592.02357 -192.69266,602.15474 -199.75532,594.82692 C -204.70193,592.62675 -215.79106,599.71573 -210.83265,588.99963 C -207.89467,583.03367 -196.44802,590.59466 -198.61091,580.47471 C -204.86366,572.68212 -197.5257,562.46947 -194.85862,554.22939 C -192.36253,545.11521 -181.93122,544.84344 -175.48132,540.15601 z"
       id="path3239" />
    <path
       style="fill:#ffc2c2;fill-rule:evenodd;stroke:none;stroke-width:1px;stroke-linecap:butt;stroke-linejoin:miter;stroke-opacity:1;fill-opacity:1"
       d="M 3.5878567,600.63645 L 3.6856986,605.06956 L -41.114787,637.13876 L -38.920161,645.43989 L -55.256633,650.28115 L -56.973199,645.41349 L -49.800409,640.04021 L -45.80636,636.45769 L -37.555457,622.97327 L -35.156725,622.29517 L -32.573826,623.12627 L -30.280985,624.48545 L -28.046851,623.18476 L -26.204456,615.52668 L -22.93939,610.812 L -18.874747,605.8713 L -14.077283,604.51509 L -4.9684659,604.83958 L -1.3507978,604.70905 L 3.5878567,600.63645 z"
       id="path3242" />
    <path
       style="fill:#ffffbf;fill-rule:evenodd;stroke:none;stroke-width:1px;stroke-linecap:butt;stroke-linejoin:miter;stroke-opacity:1;fill-opacity:1"
       d="M 16.781995,562.78164 C 25.301657,567.72054 29.522904,574.36773 22.562463,585.45875 L 17.137697,592.56826 L 11.254438,597.13092 L 7.2055239,600.50592 L 7.7422904,606.59925 L 6.1822745,608.82457 L -35.929423,639.68758 L -34.20518,649.45992 L -46.563334,652.28438 L -58.666727,655.25986 L -60.187236,647.88335 C -61.552236,648.75074 -63.143393,648.77993 -64.11453,647.65534 C -64.522819,647.18254 -66.400414,648.20787 -66.713157,648.38996 C -67.525016,648.86261 -68.807757,648.98209 -69.711572,649.2376 C -71.162544,649.64777 -71.016337,650.07594 -71.581221,651.10437 C -72.044342,651.94751 -72.707035,652.31477 -73.760487,652.61258 C -75.035747,652.97308 -75.848881,653.64939 -77.213559,653.3657 C -78.407559,653.11751 -78.886282,653.16946 -80.176672,653.53425 C -80.998812,653.76666 -80.789952,654.59977 -82.156051,654.98596 C -83.33095,655.31809 -84.899958,655.73091 -85.809021,655.7956 C -86.411411,655.83845 -88.013654,654.38021 -88.611379,654.13437 C -89.578214,653.73673 -89.918443,653.75786 -90.919946,654.34091 C -91.266567,654.54271 -91.993134,655.98733 -92.280065,656.50972 C -92.832763,657.51594 -94.112119,657.91979 -95.258913,658.24398 C -95.947414,658.43861 -97.695802,659.66271 -98.237761,659.97824 C -99.103699,660.48238 -100.47879,660.61177 -101.43606,660.88238 C -102.50862,661.18559 -103.19577,660.10943 -104.47362,659.95676 C -104.78067,659.92009 -105.07983,659.83075 -105.38294,659.76775 C -106.60279,659.51418 -107.34488,659.07973 -108.56551,659.10617 C -109.84851,659.13396 -109.94332,659.90833 -110.79965,660.40687 C -112.00149,661.10656 -112.71254,661.66753 -113.66877,662.55618 C -114.67522,663.4915 -114.9711,664.15254 -116.08323,664.80001 C -117.04722,665.36123 -117.34764,666.61376 -118.44282,667.25135 C -119.4552,667.84075 -120.43024,668.25927 -121.73129,668.62707 C -122.69665,668.89997 -124.16871,667.53179 -125.56842,667.92749 C -126.91665,668.30863 -127.5027,668.92038 -128.8569,669.30321 C -129.547,669.49829 -130.28617,670.61424 -130.98131,671.01895 C -132.26013,671.76347 -133.05511,671.88966 -134.14432,671.244 C -135.28817,670.56593 -136.20662,670.02149 -136.94668,669.58278 C -138.07012,668.91681 -139.05856,668.68089 -140.14883,668.03458 C -141.2976,667.3536 -142.66702,667.21694 -143.64104,667.01446 C -144.66259,666.80211 -146.03231,667.46743 -147.0941,667.76759 C -148.05545,668.03935 -149.29928,666.82083 -150.38642,666.69097 C -152.19344,666.47508 -153.70329,665.83544 -155.29746,665.17978 C -156.99513,664.48155 -158.08736,664.05095 -159.46378,663.23503 C -160.49703,662.62253 -160.93262,661.74218 -161.28623,660.40465 C -161.56242,659.35996 -162.44628,658.31695 -163.25372,657.8383 C -164.2751,657.23285 -165.14584,656.79311 -165.76602,655.64901 C -166.40104,654.47759 -166.65676,653.0924 -167.00837,651.76249 C -167.33756,650.51732 -167.66675,649.27215 -167.99595,648.02698 C -168.29706,646.88805 -168.59845,645.7907 -168.61904,644.85754 C -168.64901,643.50011 -168.61474,642.77422 -168.64245,641.51858 C -168.6663,640.43787 -168.98138,639.424 -169.26554,638.34914 C -169.6536,636.88131 -169.85506,636.14677 -169.34381,634.80265 C -168.88931,633.60769 -167.03886,633.22249 -169.23792,632.76537 C -169.93902,632.61962 -170.77714,631.2017 -171.09567,630.61409 C -171.78405,629.34421 -171.38806,628.68185 -171.20924,627.74668 C -171.00903,626.69951 -169.38315,626.18549 -169.41404,624.78577 C -169.43574,623.80242 -170.0582,622.53431 -170.38205,621.93688 C -170.90785,620.96692 -171.02756,619.49528 -171.31477,618.4089 C -171.66886,617.06956 -172.54516,616.67073 -173.13723,615.57851 C -173.58707,614.74869 -173.8382,613.7397 -174.10525,612.72962 C -174.15517,612.54078 -177.04267,613.33698 -177.35842,613.42624 C -178.83878,613.84472 -180.08033,613.64774 -181.54048,613.04721 C -183.04101,612.43007 -185.09769,613.7386 -186.77687,612.7432 C -188.10173,611.95782 -189.49103,612.17224 -190.90405,612.5717 C -192.75564,613.09512 -194.52076,613.11965 -196.12087,613.1543 C -197.60907,613.18653 -198.62865,612.74805 -199.39362,612.9643 C -200.70562,613.33519 -201.31695,613.95409 -202.68209,614.34 C -203.7785,614.64995 -204.83391,615.11383 -205.77067,615.6592 C -206.93359,616.33625 -207.42245,616.82192 -207.98524,617.84652 C -208.4682,618.72579 -208.49591,619.77067 -208.47136,620.88345 C -208.44348,622.14634 -208.38865,623.12845 -208.84773,624.33542 C -209.177,625.20111 -209.42603,625.67 -210.00796,626.44772 C -210.73344,627.41729 -210.58032,627.79869 -211.82274,628.52202 C -212.64083,628.99831 -213.83493,629.33429 -214.51153,629.7282 C -215.44664,630.27261 -216.72936,630.13214 -217.76471,630.42482 C -218.43851,630.6153 -219.49784,632.1672 -219.72451,632.76315 C -219.89293,633.20597 -221.37981,634.68923 -221.88421,635.15799 C -222.92072,636.12124 -224.06926,635.55265 -225.13738,635.85461 C -226.38183,636.20641 -227.14248,636.14089 -227.11676,637.30632 C -227.09714,638.19579 -226.16079,639.09805 -225.71366,639.3631 C -224.97912,639.79854 -224.70765,640.73053 -224.40073,641.89144 C -224.12639,642.92909 -223.85207,643.96672 -223.57774,645.00436 C -223.24858,646.24941 -223.85924,646.74652 -224.37347,647.68274 C -224.8487,648.54793 -225.33918,649.29398 -226.24312,649.54951 C -226.81776,649.71196 -227.52343,651.07318 -228.11276,651.41628 C -228.92462,651.88894 -230.20737,652.00841 -231.11118,652.26391 C -232.57839,652.67869 -234.09451,653.47051 -235.27367,652.77151 C -236.22664,652.20659 -235.94522,654.72213 -235.72448,655.12934 C -235.35979,655.8021 -234.08295,656.27743 -233.63154,656.54503 C -231.70312,657.68817 -232.2958,655.90914 -231.73848,658.01722 C -231.45188,659.10126 -230.68218,660.30605 -230.20608,661.37568 C -229.71835,662.47142 -229.3883,663.47461 -228.83828,664.11154 C -228.33317,664.69646 -226.4659,664.81785 -225.74585,665.24467 C -224.25869,666.12625 -223.20247,665.68394 -222.48885,667.00041 C -221.96717,667.96276 -221.766,669.07806 -221.26606,670.00031 C -220.72161,671.00469 -220.27242,672.1523 -219.8434,672.94371 C -219.24359,674.05021 -218.80455,674.43532 -218.47559,675.67959 C -218.32871,676.23518 -215.9362,677.00991 -215.7281,677.13326 C -214.86582,677.64443 -214.1462,678.45671 -213.61558,679.43558 C -213.15842,680.27893 -213.04067,681.61017 -212.7926,682.5485 C -212.64746,683.09749 -213.26025,683.23984 -213.62747,683.45363 L -196.9514,721.33978 L -142.50185,709.51584 L -141.40838,711.21407 L -140.33064,714.47802 L -139.3469,715.76119 L -132.40161,716.02819 L -129.41893,716.74628 L -123.23793,716.56021 L -115.28166,723.90168 L -100.18369,717.62623 L -95.190176,713.76117 L -91.83111,711.02727 L -89.506806,709.25501 L -85.144421,708.69091 L -79.723875,710.50413 C -79.723875,710.50413 -68.729677,707.39614 -67.330417,707.00057 C -65.931157,706.60501 -39.929161,697.69313 -39.929161,697.69313 L -40.442518,694.93876 L -2.3601668,668.33736 L -4.9975595,655.92366 L 26.887696,642.44911 L 23.565035,610.37868 L 64.900194,594.45574 L 61.459383,579.81574 L 70.744686,576.74477 L 71.712702,579.59366 L 118.91923,563.12611 L 132.48332,598.99249 L 131.09174,604.29274 L 144.85263,614.90014 L 149.45824,607.13003 L 165.0811,610.96597 L 176.75324,611.23496 L 186.8224,609.50365 L 194.14405,606.31867 L 203.29969,613.32109 L 206.65876,610.58719 L 207.91683,612.908 L 213.24338,612.74045 L 215.79099,614.25065 L 219.42822,615.00672 L 223.48097,614.08409 L 222.71285,611.17868 L 236.52129,605.71385 L 239.62139,611.75167 L 244.28955,609.09377 L 246.6764,612.43373 L 249.31032,611.02002 L 254.30347,618.53002 L 258.10146,617.45635 L 260.28841,620.8528 L 272.24294,615.68903 L 272.52916,612.70862 L 260.09347,589.23644 L 260.03861,589.02891 L 257.43998,589.76352 L 254.0222,589.83756 L 240.74706,587.56832 C 224.1347,591.28995 218.69362,588.6365 213.63238,582.52027 L 206.37364,579.44237 L 181.34808,573.35768 C 160.44312,569.48968 166.89656,557.01934 164.74607,547.94076 C 158.16362,547.00511 153.68206,544.42226 151.84347,539.76719 L 138.24297,538.70512 C 122.54066,542.28925 112.7408,548.38627 108.25151,530.90171 L 99.31533,524.72941 L 85.350343,523.10127 C 78.684407,519.6448 73.898795,514.44092 62.994,514.92375 C 54.900989,517.47648 54.133348,524.37161 49.781035,529.1418 C 28.253955,541.5512 24.754475,545.83352 16.781995,562.78164 z"
       id="path3244"
       sodipodi:nodetypes="ccccccccccccsssssssssssssssssssssssssssssssssssssssssssssssssssssssssssssssssssssssssssssssssssssssssssccccccccccccccccscccccccccccccccccccccccccccccccccccccccccccccccccccccc" />
    <path
       style="fill:#808080;fill-opacity:1;fill-rule:evenodd;stroke:none;stroke-width:1px;stroke-linecap:butt;stroke-linejoin:miter;stroke-opacity:1"
       d="M -201.24366,721.49633 L -218.13768,681.30657 C -228.4292,680.91889 -234.99676,676.49384 -242.52906,673.11473 C -246.61828,684.23145 -252.80849,692.08521 -262.05037,695.19956 L -264.09862,696.07442 L -268.82922,693.27016 L -272.69166,690.5163 L -277.8538,689.31317 C -273.1136,696.85228 -275.24498,700.59921 -285.62598,699.79347 L -292.32698,701.39197 L -295.79961,701.19035 L -299.32415,698.63681 L -301.26859,704.21554 L -303.52498,710.76992 L -307.93854,710.24265 L -312.15464,712.61783 L -313.11644,714.36885 L -317.88876,715.71796 L -318.33606,722.64841 L -320.57159,727.12612 L -322.78625,729.52716 L -325.67672,731.52758 L -326.48788,737.08176 L -327.92801,741.33462 L -330.09077,746.08758 L -330.44953,747.96397 L -329.33711,750.01609 L -328.51577,750.96721 C -318.15516,755.16175 -319.42939,764.6763 -322.44982,774.98929 L -316.15999,788.0025 L -315.26078,792.48153 L -315.90553,796.50953 L -311.12303,801.66573 L -308.67986,806.59576 L -307.99897,810.24901 L -306.59546,813.40217 L -302.08828,812.12801 L -301.41247,812.52863 L -297.87774,821.58747 L -282.40105,803.60429 L -282.15629,790.51875 L -283.88193,781.83596 L -284.45852,767.79929 L -285.18623,765.04675 L -286.46505,764.52078 L -285.73176,755.4387 L -290.80535,749.1815 L -263.091,723.59723 L -257.9655,732.20639 L -257.75737,726.52685 L -254.57583,725.62744 L -256.733,718.54578 L -249.62134,717.42284 L -248.43104,723.00287 L -242.04708,719.12738 L -232.25817,718.43089 L -224.5852,721.58666 L -216.89136,722.66575 L -201.24366,721.49633 z"
       id="path3246"
       sodipodi:nodetypes="ccccccccccccccccccccccccccccccccccccccccccccccccccccccccccc" />
    <path
       style="fill:#808080;fill-opacity:1;fill-rule:evenodd;stroke:none;stroke-width:1px;stroke-linecap:butt;stroke-linejoin:miter;stroke-opacity:1"
       d="M -305.09324,818.00655 C -305.42325,819.02377 -305.77521,820.34768 -305.73798,822.03455 C -305.70969,823.31655 -304.97545,824.91883 -304.64641,826.16338 C -304.19379,827.87542 -304.27961,828.83592 -304.49578,829.96653 C -304.68423,830.95214 -303.6674,833.09988 -303.40422,834.09535 C -303.11423,835.19225 -302.11119,836.35662 -301.47045,837.0986 C -300.16036,838.61568 -298.48445,839.79713 -297.12457,840.60325 C -295.74096,841.42346 -294.42317,841.97251 -292.80465,842.93196 C -291.53135,843.68676 -290.97296,844.94623 -289.81036,845.63542 C -288.03411,846.68835 -286.41527,847.38167 -284.69505,847.73926 C -283.33516,848.02194 -282.53767,848.44784 -281.00411,848.76663 C -279.48794,849.0818 -278.20755,849.60575 -276.51778,849.56916 C -275.10882,849.53864 -273.78153,849.57909 -272.24975,849.54591 C -270.68267,849.51198 -269.40647,849.62961 -267.78938,849.17247 C -266.1811,848.71782 -265.28637,849.05655 -263.6669,848.59873 C -262.21406,848.18802 -261.10246,848.13583 -259.54442,848.02499 C -257.77755,847.89927 -256.23485,848.43775 -254.6006,848.40234 C -253.78334,848.38465 -253.24169,848.44213 -252.59916,848.4282 L -252.33404,848.35326 L -226.97332,782.61033 L -219.50289,779.61102 L -196.17154,773.01538 L -173.34449,767.74561 L -159.09521,766.67568 L -146.31711,765.43001 L -144.79861,749.61777 L -147.76694,748.09028 L -146.47695,724.94698 L -143.36818,723.77233 L -142.88982,721.27049 L -144.37119,714.58944 L -173.10385,721.23285 L -198.27025,726.27646 L -214.25584,727.24558 L -235.45549,724.65963 L -244.93245,724.38045 L -245.40571,730.13493 L -253.14636,729.95656 L -252.42933,741.29108 L -255.34574,742.11554 L -263.61107,730.25243 L -284.39034,749.73462 L -280.74113,754.91536 L -282.24895,762.14562 L -281.38079,762.19603 L -276.44303,789.49529 L -279.35995,805.40703 L -298.63699,829.49358 L -303.28415,818.38261 L -305.09324,818.00655 z"
       id="path3248" />
    <path
       style="fill:#808080;fill-opacity:1;fill-rule:evenodd;stroke:none;stroke-width:1px;stroke-linecap:butt;stroke-linejoin:miter;stroke-opacity:1"
       d="M -247.6294,849.98154 C -247.0024,850.54313 -246.12951,852.48236 -245.28495,853.46035 C -244.79505,854.02767 -242.51609,854.17325 -241.52123,854.76298 C -239.98038,855.67639 -237.84415,856.17767 -236.81658,856.39127 C -235.28052,856.71057 -233.21519,855.669 -231.70637,855.24248 C -229.70742,854.67738 -228.45056,856.02586 -226.7366,856.79581 C -225.7796,857.22571 -223.36629,857.41488 -222.58816,857.39803 C -220.89803,857.36142 -221.33329,859.76426 -219.16235,858.50035 C -218.1602,857.91692 -216.87705,854.74751 -216.58893,854.22295 C -215.74924,852.69423 -215.67378,852.00095 -214.59257,850.99616 C -213.29618,849.79138 -209.96245,849.98307 -208.42183,849.54756 C -206.63788,849.04324 -204.63428,848.77266 -202.78135,848.24885 C -200.75277,847.67538 -198.46775,847.32523 -196.34549,846.72529 C -194.40517,846.17678 -192.43965,845.39495 -190.43988,845.35163 C -188.63643,845.31257 -186.33095,844.19006 -184.60705,843.70272 C -182.21843,843.02748 -181.38563,842.59484 -179.47087,843.7299 C -177.94563,844.63404 -176.66369,845.6761 -174.69345,845.63343 C -172.89872,845.59457 -171.03143,845.34649 -169.36492,845.31039 C -167.44309,845.26876 -166.31032,845.45186 -164.49386,845.41251 C -162.91325,845.37828 -161.76853,845.23372 -160.10627,844.76381 C -158.69224,844.36408 -157.27822,843.96434 -155.8642,843.56461 C -154.27342,843.11491 -152.68266,842.6652 -151.09188,842.2155 C -149.75072,841.83636 -149.64431,841.55601 -149.11639,841.06539 L -148.77849,841.26569 L -146.9359,770.63399 C -169.33076,768.49533 -196.9355,778.58877 -223.30324,785.71439 L -247.6294,849.98154 z"
       id="path3250"
       sodipodi:nodetypes="csssssssssssssssssssssccccc" />
    <path
       style="fill:#808080;fill-opacity:1;fill-rule:evenodd;stroke:none;stroke-width:1px;stroke-linecap:butt;stroke-linejoin:miter;stroke-opacity:1"
       d="M -78.541829,714.61693 L -34.098884,700.57404 L -35.382805,696.79542 L -0.96236074,672.86532 L 28.96832,753.74363 L 24.216861,753.01606 L 28.146487,767.87978 L -15.588629,756.57735 L -50.315434,769.6485 L -57.312116,751.80605 L -62.999412,754.00547 L -63.430949,755.60659 L -64.756588,755.98134 L -66.352456,753.17839 L -79.614004,753.67326 L -80.269432,766.28326 L -82.535999,766.33235 L -83.268801,760.32716 L -91.945296,763.07576 L -91.046088,767.55479 L -93.432247,768.22934 L -96.35375,765.80115 L -103.73564,763.74639 L -104.67149,766.67338 L -122.18017,765.11482 L -122.98576,758.83437 L -140.36977,759.90299 L -140.97232,744.69036 L -143.11929,744.11398 L -142.20383,728.1764 L -139.36018,727.07668 L -138.35667,721.17231 L -136.28246,721.47341 L -136.15778,724.10061 L -129.23846,723.32786 L -128.27668,721.57684 L -125.62539,720.82734 L -116.52294,728.31222 L -114.49556,729.51405 L -105.65266,725.23926 L -97.194484,721.66488 L -91.678691,717.73899 L -87.971978,713.43703 L -81.265887,715.09118 L -78.541829,714.61693 z"
       id="path3252" />
    <path
       style="fill:#808080;fill-opacity:1;fill-rule:evenodd;stroke:none;stroke-width:1px;stroke-linecap:butt;stroke-linejoin:miter;stroke-opacity:1"
       d="M 16.483945,834.77936 L 15.706287,769.32577 L -13.337825,761.85758 L -52.836951,776.27784 L -59.37615,758.01023 L -66.628267,761.83533 L -68.369668,758.48187 L -76.52099,757.82794 L -75.294567,771.08924 L -92.798174,772.78332 L -98.729732,772.981 L -99.410621,769.32774 L -100.20602,769.55259 L -100.37242,771.07877 L -126.27161,770.11718 L -127.14995,763.56148 L -142.12186,765.13152 L -145.9557,842.24266 L -139.05725,843.5466 C -138.47848,843.58021 -137.8997,843.61381 -137.32094,843.64741 C -135.87091,843.7316 -134.30251,843.30521 -132.86056,843.27397 C -132.65569,843.26953 -133.26258,843.19041 -133.46359,843.14862 C -135.08418,842.81173 -130.29591,844.14477 -128.75895,844.77691 C -126.84461,845.56424 -126.25358,846.24521 -124.3922,846.20488 C -122.73548,846.169 -121.72069,844.46907 -121.38215,843.57901 C -120.76435,841.95473 -118.0874,842.97882 -117.45203,843.35547 C -116.24933,844.06842 -116.09319,845.26185 -115.71062,846.70892 C -115.34677,848.08519 -114.98291,849.46146 -114.61906,850.83773 C -114.37684,851.75391 -111.52774,849.43501 -111.31792,849.31288 C -110.16504,848.64167 -110.11254,847.5995 -109.85184,846.23598 C -109.51273,844.46246 -108.87503,844.15859 -106.98733,843.0596 C -105.64339,842.27717 -104.08025,841.94195 -102.5529,841.51018 C -101.22726,841.13543 -99.901613,840.76068 -98.575966,840.38592 C -97.633109,840.11939 -96.239094,837.69989 -95.711447,837.20954 C -94.973091,836.52335 -93.32162,836.23812 -92.072414,835.88498 C -90.878314,835.54741 -88.65955,835.53421 -87.612048,835.51152 C -85.857683,835.47354 -84.342985,835.77069 -82.548638,835.26344 C -80.625628,834.71981 -78.597763,834.64582 -76.76262,834.51525 C -76.579784,834.50224 -76.409114,834.41531 -76.232361,834.36535 C -74.720304,833.9379 -72.602271,833.52544 -71.049363,833.4918 C -69.359642,833.4552 -68.103155,833.25058 -66.396634,832.76815 C -64.669755,832.27998 -62.988812,832.39643 -61.21364,831.8946 C -59.757758,831.48303 -58.518908,831.72446 -56.826031,831.2459 C -55.363511,830.83246 -53.927972,830.35264 -52.511195,830.32195 C -51.076562,830.29088 -49.891706,830.17309 -48.388725,829.7482 C -46.765138,829.28923 -44.974493,829.37467 -43.205729,828.87466 C -41.703326,828.44994 -40.200935,828.02522 -38.698536,827.6005 C -37.019385,827.12581 -35.340235,826.65113 -33.661085,826.17644 C -32.290421,825.78896 -30.888307,825.43561 -29.756922,824.77694 C -28.847448,824.24745 -27.638742,822.98792 -26.674099,822.42631 C -25.597294,821.79939 -23.895935,821.64093 -22.697166,821.30205 C -21.194767,820.87733 -19.69237,820.45261 -18.189973,820.02789 C -16.929848,819.67167 -15.8124,820.27671 -14.836926,820.85496 C -13.139149,821.86139 -12.177173,821.64314 -11.192801,822.78306 C -10.12906,824.01487 -8.498106,825.0768 -7.2575875,825.81217 C -5.5679943,826.81374 -5.4766033,828.82948 -4.4297083,830.04179 C -3.7656718,830.81074 -0.39026192,835.10146 0.23321162,835.82344 C 0.61962634,836.20724 1.0060411,836.59105 1.3924549,836.97486 C 2.4486893,838.02396 3.1702638,838.45892 4.6259104,838.42739 C 6.2088253,838.3931 7.3438046,838.62259 8.6756169,837.57839 C 9.6695642,836.79908 11.196839,836.56982 12.579781,836.17888 C 13.94846,835.79196 15.243248,835.50168 16.483945,834.77936 z"
       id="path3254"
       sodipodi:nodetypes="cccccccccccccccccccsssssssssssssssssssssssssssssssssssssc" />
    <path
       style="fill:#808080;fill-rule:evenodd;stroke:none;stroke-width:1px;stroke-linecap:butt;stroke-linejoin:miter;stroke-opacity:1;fill-opacity:1"
       d="M 15.578475,703.09682 L 99.972941,670.95587 L 105.94574,681.6921 L 150.19123,664.74677 L 173.15119,728.95861 L 159.84792,733.60684 L 164.79634,752.32414 L 158.33912,771.01165 L 158.15597,808.04172 L 146.97932,800.25571 L 140.70476,797.00045 L 128.81058,792.96721 L 120.63331,791.1373 L 114.80047,792.78621 L 111.11972,798.26414 L 100.92523,801.7377 L 97.800681,808.2417 L 94.333142,811.29273 L 93.256857,816.92187 L 90.75111,818.22188 L 89.674824,823.85101 L 90.6468,828.60528 L 91.30174,831.08258 L 89.399019,832.50794 L 81.632414,831.1536 L 75.555311,830.80078 L 69.09349,831.14836 L 59.782926,829.343 L 53.996904,830.0912 L 51.517111,832.56719 L 42.357184,834.56499 L 36.935017,836.68946 L 31.658393,839.36443 L 31.185136,845.11891 L 26.97412,850.74674 L 28.289579,843.86669 L 27.125245,839.46262 L 23.070447,837.05897 L 20.512788,836.00704 L 20.676059,770.87911 L 34.280594,773.83719 L 30.444599,757.17203 L 35.533957,758.09991 L 15.578475,703.09682 z"
       id="path3256" />
    <path
       style="fill:#808080;fill-opacity:1;fill-rule:evenodd;stroke:none;stroke-width:1px;stroke-linecap:butt;stroke-linejoin:miter;stroke-opacity:1"
       d="M 69.335414,585.24834 L 68.077446,582.64569 L 66.751799,583.02045 L 70.489071,598.23439 L 28.484196,613.95466 L 32.246931,645.43185 L -0.59801615,659.15432 L 13.306808,699.89327 L 91.338179,669.55112 L 102.66595,666.05301 L 107.55228,675.91307 L 152.40079,659.09309 L 154.4333,663.54756 L 227.12036,638.8578 L 227.09441,637.68184 L 214.11426,617.68515 L 204.44493,617.75616 L 201.52851,618.58062 L 192.83674,611.57129 L 185.24673,615.19607 L 171.11703,615.64054 L 158.0219,614.60924 L 151.19622,613.58055 L 145.56593,621.38455 L 127.12188,607.6657 L 127.1066,597.90775 L 121.77855,583.1435 L 116.47647,569.55524 L 69.335414,585.24834 z"
       id="path3258" />
    <path
       style="fill:#808080;fill-opacity:1;fill-rule:evenodd;stroke:none;stroke-width:1px;stroke-linecap:butt;stroke-linejoin:miter;stroke-opacity:1"
       d="M 155.93553,668.15195 L 229.53758,642.61186 L 235.82741,655.62508 L 230.00476,663.77929 L 228.24758,665.75516 L 226.70362,665.30415 L 225.01921,667.55528 L 221.40614,670.05581 L 214.08124,673.60563 L 204.48979,677.20457 L 200.12813,679.02924 L 214.58457,702.45433 L 210.12928,706.08042 L 218.97119,731.98019 L 216.94888,734.03102 L 241.36524,773.57338 C 241.36524,773.57338 290.86699,740.94247 292.19264,740.56772 C 293.51827,740.19297 331.28667,713.83728 331.28667,713.83728 L 355.70303,753.37965 L 302.97291,787.81067 L 301.58879,827.84268 L 297.5859,827.79096 L 296.71628,873.0024 L 289.64633,869.97198 L 284.43738,869.66956 L 279.51952,870.46817 L 275.52172,873.66909 L 271.44606,873.34213 L 265.92008,870.76273 L 261.50143,866.98281 L 248.06329,862.49855 L 235.18137,859.04036 L 224.11873,862.46354 L 220.02779,852.37861 L 214.33539,851.32538 L 210.69637,852.64994 L 208.99109,856.97775 L 207.05223,850.72186 L 203.86051,845.11596 L 199.63421,840.98583 L 195.99008,839.05775 L 190.58878,839.10553 L 185.38493,842.05576 L 182.84304,835.6745 L 177.29109,831.91913 L 172.99712,830.76641 L 166.10377,832.71512 L 164.3415,831.43833 L 162.81889,813.82337 L 162.38784,800.33721 L 161.95729,771.76378 L 168.84605,751.47514 L 164.77088,736.0609 L 178.6044,731.26276 L 155.93553,668.15195 z"
       id="path3260" />
    <path
       style="fill:#808080;fill-opacity:1;fill-rule:evenodd;stroke:none;stroke-width:1px;stroke-linecap:butt;stroke-linejoin:miter;stroke-opacity:1"
       d="M 234.82212,876.004 C 235.64829,876.14577 237.87433,876.65275 238.85097,877.23169 C 239.86423,877.83235 242.47767,877.63759 242.6615,877.63361 C 243.88602,877.60708 245.6459,876.21374 246.68526,875.60864 C 248.18374,874.73624 248.15994,873.64207 247.74068,872.05619 C 247.4045,870.78464 246.17102,870.43021 245.73413,868.77768 C 245.32301,867.22262 244.02697,866.99211 242.62026,866.6997 C 241.28061,866.42122 240.77224,866.03882 239.14763,866.49809 C 237.55686,866.94779 235.96609,867.3975 234.37531,867.8472 C 232.59568,868.35028 231.88853,869.12185 231.02735,870.27276 C 230.33034,871.2043 230.46985,872.47515 230.8401,873.87561 C 231.15548,875.06855 233.33205,875.06738 234.00078,875.0529 C 234.41052,875.04403 234.54835,875.68698 234.82212,876.004 z"
       id="path3262" />
    <path
       style="fill:#bfffbf;fill-rule:evenodd;stroke:none;stroke-width:1px;stroke-linecap:butt;stroke-linejoin:miter;stroke-opacity:1;fill-opacity:1"
       d="M 282.60657,578.20659 C 284.04065,578.17552 282.734,575.1204 283.44368,573.82838 C 284.05132,572.72212 284.26823,571.60885 284.90978,570.75149 C 286.52008,568.59939 284.94356,568.37532 283.26708,568.84925 C 281.99927,569.20766 280.78675,570.14208 279.17056,570.59896 C 277.811,570.9833 277.22719,573.84199 276.86227,574.80142 C 276.24791,576.41661 277.04694,577.477 278.07342,578.30478 C 279.17623,579.19412 281.42178,578.54152 282.60657,578.20659 z"
       id="path3264" />
    <path
       style="fill:#bfffbf;fill-rule:evenodd;stroke:none;stroke-width:1px;stroke-linecap:butt;stroke-linejoin:miter;stroke-opacity:1;fill-opacity:1"
       d="M 264.07858,587.88174 C 265.66936,587.43204 274.22625,585.30888 274.22625,585.30888 L 275.9417,587.48637 L 280.30845,588.91434 C 280.30845,588.91434 287.77888,585.91503 288.8394,585.61523 C 289.89991,585.31543 291.21537,578.43537 291.21537,578.43537 L 298.87816,575.08584 L 304.73695,574.6129 L 319.47526,562.45915 L 325.17323,551.67776 L 334.33316,549.67995 L 341.85042,545.77992 L 344.15871,541.57746 L 350.26177,543.10626 L 357.87773,540.65744 L 373.12035,527.17782 L 382.37391,523.3786 L 387.99353,524.15657 L 387.54113,527.83438 C 387.54113,527.83438 387.73858,530.73682 388.94464,530.98753 C 390.1507,531.23823 393.74292,530.81439 393.74292,530.81439 L 394.07572,527.76204 L 395.87972,524.88545 L 405.08647,521.98693 L 412.19304,517.61134 L 420.09499,513.0109 L 428.11655,507.78498 L 439.0596,504.98727 L 447.33051,505.01575 L 456.33422,511.04943 L 460.67501,511.30144 C 461.22953,511.24329 461.78404,511.18513 462.33856,511.12699 C 464.08542,510.9438 466.89992,509.9007 468.09862,509.20283 C 469.14249,508.5951 469.41937,507.64615 470.98908,507.2024 C 472.78529,506.69462 474.69638,507.33768 476.58275,506.80441 C 478.36116,506.30166 480.70018,506.48319 482.32196,506.95694 C 483.81549,507.39322 485.4746,507.74235 486.88106,508.03471 C 488.43064,508.35683 489.83066,507.79253 491.5338,507.31107 C 493.07912,506.87421 494.89672,506.38547 495.96821,505.76166 C 497.11561,505.09366 498.07095,502.85833 498.68718,502.03476 C 499.78269,500.57066 501.13864,500.01809 501.81682,498.78341 C 502.54411,497.45931 503.62338,496.24732 504.60855,495.33177 C 505.93742,494.09683 506.20825,492.82134 507.0624,491.67982 C 508.0229,490.39615 510.21415,489.26514 511.51768,488.05372 C 512.67799,486.97542 512.77229,485.67436 514.04429,484.67704 C 514.17726,484.57277 515.73658,481.59607 515.96787,481.17499 C 516.65475,479.92446 517.40264,478.6056 518.15658,477.598 C 519.4282,475.89853 520.94924,474.52148 522.5391,473.69664 C 524.07701,472.89876 524.92626,471.11578 526.46412,470.22045 C 527.87511,469.399 529.74076,468.99834 531.4288,468.52114 C 533.28471,467.99648 535.14061,467.47184 536.99651,466.94718 C 538.4989,466.52247 540.00131,466.09774 541.5037,465.67302 C 543.14376,465.20939 543.41454,464.61552 543.38048,463.07169 C 543.36443,462.34472 545.75961,460.23823 546.09944,459.34479 C 546.61351,457.99321 548.10325,456.9199 548.8184,455.6179 C 549.27471,454.78715 549.85189,452.74522 550.13896,451.9905 C 551.12463,450.19599 551.79236,449.19877 552.56684,447.16258 C 553.10763,445.74079 553.69069,445.21983 553.96015,443.81043 C 554.14976,442.81884 553.39696,440.60233 553.13373,439.60667 C 552.85127,438.5383 552.71192,436.93337 552.38007,435.67816 C 552.03245,434.36329 551.64758,432.70912 551.6264,431.74964 C 551.59055,430.12537 551.32274,429.28879 552.4167,428.27214 C 553.57606,427.19471 554.27535,430.99875 555.62929,431.80135 C 557.32685,432.80766 557.80165,432.35413 559.14873,431.10226 C 559.25841,431.00033 559.50427,427.27522 559.52837,427.14919 C 559.76387,425.9174 560.92402,424.69714 561.18681,423.7221 C 561.50461,422.54299 562.00468,421.49382 561.97711,420.24459 C 561.95232,419.12143 563.07887,417.7615 563.29766,416.6172 C 563.49396,415.59055 564.42185,414.16277 564.95611,413.1901 C 565.64779,411.93084 566.4617,411.26452 567.02524,410.23855 C 567.76984,408.88292 568.63561,408.66577 569.84293,407.96288 C 571.05302,407.25838 573.001,407.07011 574.35012,406.68873 C 574.92071,406.52743 575.17641,406.20767 575.33787,406.11367 L 615.31897,437.70607 L 585.85762,471.7715 L 630.54287,520.07945 L 619.98963,525.42941 L 614.18273,528.25429 C 609.11805,526.19418 601.78838,528.25767 593.13882,532.72414 L 541.66569,599.93236 L 501.13348,570.56655 C 496.49943,567.57118 491.64524,564.87002 484.79979,564.83007 L 472.88985,566.12615 L 461.96765,566.84718 L 457.67876,568.9471 L 454.66872,571.57298 L 447.79114,568.19235 L 440.02453,566.83801 L 431.05695,568.48562 L 396.87617,576.07754 L 389.0943,564.96525 L 385.36163,568.09123 L 380.09568,562.18423 L 376.72177,563.43384 L 368.87221,555.29893 L 350.71318,569.603 L 343.03002,559.94194 L 327.49122,569.06788 L 340.42457,589.96529 L 273.58101,604.42417 L 264.07858,587.88174 z"
       id="path3266"
       sodipodi:nodetypes="ccccsccccccccccccccscccccccccccsssssssssssssssssssssssscssssssssssssssssccccccccccccccccccccccccccccc" />
    <path
       style="fill:#bfbfff;fill-rule:evenodd;stroke:none;stroke-width:1px;stroke-linecap:butt;stroke-linejoin:miter;stroke-opacity:1;fill-opacity:1"
       d="M 242.63389,767.59405 L 333.0128,707.4328 L 382.15746,785.54186 L 388.261,771.98338 L 408.24852,801.24052 L 436.56178,742.35441 L 421.75727,712.22372 L 436.79684,707.67629 L 483.79793,679.59805 L 539.06632,603.0338 L 493.80351,570.86373 L 488.01238,568.35927 L 481.11903,570.30798 L 476.36757,569.58041 L 469.13631,571.32882 L 464.04696,570.40094 L 457.85535,573.92623 L 454.02397,575.60099 L 444.08442,572.49432 L 434.19679,571.73957 L 425.18239,574.28788 L 395.58159,580.8809 L 387.63329,571.29479 L 384.96114,574.12097 L 379.35729,568.01366 L 376.00934,570.43924 L 368.80963,561.52898 L 349.92798,576.33315 L 342.0265,565.84632 L 333.66706,570.87193 L 348.21712,592.49559 L 337.00893,595.36825 L 291.06375,604.80677 L 275.73309,608.25318 L 277.21446,614.93423 L 275.22321,621.41367 L 258.44731,625.86029 L 256.65908,623.40755 L 250.53516,623.95544 L 248.40394,618.04975 L 245.12367,617.49793 L 242.87795,615.47034 L 238.78143,617.22006 L 234.64878,611.28851 L 229.17979,614.31368 L 231.62295,619.24372 L 225.95652,619.36645 L 222.89965,622.89305 L 230.41641,634.08028 L 236.46706,648.34442 L 239.68476,655.12628 L 231.77211,668.30871 L 227.02575,670.83378 L 221.39036,675.38513 L 210.40048,679.08357 L 205.77371,680.98318 L 220.56804,704.60858 L 215.02628,707.3585 L 222.95323,734.10859 L 221.96548,734.68364 L 242.63389,767.59405 z"
       id="path3268" />
    <path
       style="fill:#808080;fill-opacity:1;fill-rule:evenodd;stroke:none;stroke-width:1px;stroke-linecap:butt;stroke-linejoin:miter;stroke-opacity:1"
       d="M 440.64254,745.93403 L 423.38221,779.8044 L 394.85572,841.1174 L 407.86232,847.20277 L 425.58934,849.5871 L 432.35292,841.75856 L 445.24041,833.38212 L 457.29032,844.47117 L 458.05976,843.07036 L 454.02072,835.33738 L 464.52716,830.88813 L 466.50774,832.99068 L 467.88021,831.71521 L 466.54947,828.83732 L 478.66753,821.8617 L 484.99449,812.38162 L 491.11331,808.58108 L 495.20475,803.57871 L 505.77886,796.15208 L 478.11328,760.48651 L 473.00816,764.88797 L 456.60728,747.0416 L 444.9416,750.33942 L 440.64254,745.93403 z"
       id="path3270" />
    <path
       style="fill:#808080;fill-opacity:1;fill-rule:evenodd;stroke:none;stroke-width:1px;stroke-linecap:butt;stroke-linejoin:miter;stroke-opacity:1"
       d="M 490.71431,769.34897 L 510.67077,794.17751 L 520.62099,788.70221 L 529.63538,786.15389 L 542.53816,787.53541 L 547.1909,786.81176 L 548.1995,784.16001 L 507.05966,736.32893 L 512.98103,729.62595 L 511.46303,730.3509 L 500.48333,740.55463 L 497.37965,744.98193 L 490.71431,769.34897 z"
       id="path3272" />
    <path
       style="fill:#808080;fill-opacity:1;fill-rule:evenodd;stroke:none;stroke-width:1px;stroke-linecap:butt;stroke-linejoin:miter;stroke-opacity:1"
       d="M 428.75443,714.97888 L 441.91215,709.78014 L 465.85722,694.72788 L 488.11787,681.92675 L 553.03519,592.28087 L 607.45236,634.28777 L 584.5831,658.79817 L 577.55997,654.86704 L 556.52065,677.67683 L 542.56755,683.10043 L 532.11811,693.15425 L 519.89671,680.33872 L 509.2605,678.90811 L 502.35697,674.35152 L 499.6329,674.82577 L 498.69707,677.75277 L 497.30375,681.10491 L 491.63731,681.22765 L 489.82264,692.68622 L 483.9379,691.98319 L 497.38064,714.80737 L 472.08907,732.31106 L 468.49685,732.73491 L 453.17225,709.25942 L 439.10926,736.90104 L 428.75443,714.97888 z"
       id="path3274" />
    <path
       style="fill:#bfffbf;fill-rule:evenodd;stroke:none;stroke-width:1px;stroke-linecap:butt;stroke-linejoin:miter;stroke-opacity:1;fill-opacity:1"
       d="M 577.88209,660.39668 L 557.95011,682.00595 L 544.06977,687.7048 L 532.20106,699.9348 L 518.98683,684.44168 L 513.10208,683.73865 L 506.46877,682.35976 L 503.20935,679.73126 L 499.96013,683.60806 L 495.47888,686.05818 L 493.99193,691.21175 L 497.03813,696.26715 L 493.32632,697.31645 L 503.60327,715.7107 L 474.89098,735.36472 L 466.23537,736.03665 L 460.48598,729.37884 L 452.89646,717.91634 L 442.58698,740.3553 L 447.34353,744.33552 L 458.96239,741.93842 L 473.11755,757.75721 L 478.46696,755.35748 L 487.33021,764.09329 L 494.43218,741.37776 L 513.5011,722.97075 L 519.20368,730.52927 L 512.46095,736.28114 L 554.66132,783.81243 L 553.04968,786.33881 L 555.08218,790.79329 L 530.48777,791.53363 L 521.22912,792.08021 L 516.31635,796.13145 L 505.35242,801.00585 L 497.04489,808.38339 L 492.54278,812.9102 L 487.79642,815.43528 L 481.94781,822.41351 L 478.9169,827.11606 L 472.0495,830.24075 L 470.41701,834.84381 L 472.56908,838.67283 L 515.99128,881.12549 L 558.50603,852.24473 L 593.79415,843.4523 L 605.79262,837.10213 L 614.17803,833.2525 L 625.54752,825.60102 L 626.36378,823.29948 L 621.2276,823.27232 L 609.90032,811.68316 L 607.29583,811.53195 L 587.87472,789.80617 L 594.47191,783.50379 L 585.46309,774.21747 L 590.32396,767.81429 L 584.72012,761.70698 L 587.98511,752.50086 L 599.20907,744.29886 L 606.74159,750.15677 L 614.97635,742.50397 L 617.97064,745.20743 L 623.41367,741.00628 L 630.89428,744.51225 L 653.90399,717.29971 L 648.49249,710.8422 L 644.07384,707.06227 L 639.06236,709.6623 L 620.3898,688.61238 L 603.0053,704.76828 L 597.35463,699.56168 L 607.15422,690.28321 L 603.65054,685.65299 L 606.27587,683.72751 L 603.52077,679.77314 L 606.28655,675.14553 L 591.91308,658.50099 L 584.6401,664.40276 L 577.88209,660.39668 z"
       id="path3276" />
    <path
       style="fill:#ffc2c2;fill-rule:evenodd;stroke:none;stroke-width:1px;stroke-linecap:butt;stroke-linejoin:miter;stroke-opacity:1;fill-opacity:1"
       d="M 624.65469,624.98738 L 677.62104,679.8291 L 671.56989,680.65225 L 663.58498,678.47215 L 660.25789,678.82104 L 654.74208,682.74694 L 658.07427,685.65069 L 659.35819,689.4293 L 659.29051,692.40669 L 662.841,696.13622 L 663.37635,699.23897 L 664.42109,704.26848 L 665.6063,706.59588 L 657.94861,713.19806 L 651.72087,709.04208 L 649.76624,708.1155 L 642.28053,701.35689 L 638.25677,703.38185 L 620.57197,681.75687 L 612.33721,689.40967 L 610.21109,686.75662 L 612.81047,683.65519 L 609.25996,679.92566 L 612.82114,675.0732 L 595.42743,654.54924 L 624.65469,624.98738 z"
       id="path3278" />
    <path
       style="fill:#808080;fill-opacity:1;fill-rule:evenodd;stroke:none;stroke-width:1px;stroke-linecap:butt;stroke-linejoin:miter;stroke-opacity:1"
       d="M 442.74485,841.18743 L 445.90045,839.11206 L 456.40639,849.7501 L 464.50072,844.79945 L 459.93143,837.21636 L 464.70375,835.86726 L 524.23573,895.06527 L 508.91016,901.76434 L 494.65627,884.49433 L 484.33201,882.08807 L 442.74485,841.18743 z"
       id="path3280" />
    <path
       style="fill:#808080;fill-opacity:1;fill-rule:evenodd;stroke:none;stroke-width:1px;stroke-linecap:butt;stroke-linejoin:miter;stroke-opacity:1"
       d="M 606.87135,756.03661 L 599.19329,749.62819 L 589.2273,760.43282 L 597.07686,768.56772 L 592.11729,773.51968 L 600.16429,784.55702 L 594.64849,788.48292 L 609.72372,806.70404 L 611.57962,806.17938 L 624.23765,820.64644 L 652.8563,802.79385 L 659.38071,796.21622 L 662.47372,800.37089 L 674.18112,792.91971 L 671.77968,783.83632 L 646.57254,762.85873 L 643.05309,763.55783 L 630.56656,750.81725 L 628.10254,747.9639 L 623.01317,747.03602 L 618.51109,751.56283 L 614.72141,749.08422 L 606.87135,756.03661 z"
       id="path3282" />
    <path
       style="fill:#bfbfff;fill-rule:evenodd;stroke:none;stroke-width:1px;stroke-linecap:butt;stroke-linejoin:miter;stroke-opacity:1;fill-opacity:1"
       d="M 753.55802,790.3007 L 758.66364,770.81197 L 752.07712,768.53236 L 754.9055,757.67471 L 765.22467,756.82832 L 754.99404,752.62062 L 757.6611,746.5418 L 760.76987,745.36714 L 762.71431,739.78841 L 765.43329,736.06151 L 775.82572,720.4031 L 788.97374,693.61178 L 797.33367,673.49891 L 809.52502,651.71126 L 803.00668,631.36699 L 800.08007,625.68614 L 795.46906,622.25642 L 776.62454,614.5673 L 736.55146,693.63994 L 720.70023,718.82882 L 710.06354,732.4855 L 694.23974,713.58852 L 701.93915,702.83298 L 682.3725,680.55668 L 677.31419,684.05743 L 673.07213,685.25663 L 669.30841,683.95399 L 663.01299,682.77541 L 663.16362,686.57857 L 663.84451,690.23183 L 666.79198,693.83599 L 667.71714,699.49097 L 671.08038,706.82334 L 634.82948,747.54136 L 638.93111,749.0443 L 637.53778,752.39644 L 642.8765,758.5787 L 645.57461,756.92848 L 679.5931,784.28994 L 700.04467,771.11276 L 710.11397,780.09927 L 736.45588,755.79048 L 745.34508,765.70225 L 749.06708,771.15825 L 753.55802,790.3007 z"
       id="path3284" />
    <path
       style="fill:#ffc2c2;fill-rule:evenodd;stroke:none;stroke-width:1px;stroke-linecap:butt;stroke-linejoin:miter;stroke-opacity:1;fill-opacity:1"
       d="M 358.60588,757.58617 C 357.38735,757.93064 307.29001,790.10762 307.29001,790.10762 L 305.89086,834.35039 L 302.42651,833.63025 L 299.64162,877.58496 L 304.46192,877.24199 L 312.70449,886.12862 L 319.68701,886.534 L 329.45274,894.99002 L 344.25392,898.96344 L 353.3028,909.66153 L 357.21506,913.31416 L 366.13295,911.13304 L 379.49459,915.85331 L 383.87286,916.31511 L 399.68325,927.82096 L 415.89415,929.69636 L 432.15298,926.79959 L 448.5732,920.79808 L 465.18461,913.04303 L 482.93679,908.3645 L 504.48193,901.93391 L 491.60441,887.89945 L 482.98529,886.2572 L 437.75844,843.97859 L 431.50446,848.80566 C 431.50446,848.80566 430.54262,853.83618 429.3241,854.18065 C 428.10558,854.52511 406.43531,851.81374 406.43531,851.81374 L 389.54965,843.67096 L 405.72601,805.7877 L 389.70101,781.08637 L 383.0167,794.19273 L 358.60588,757.58617 z"
       id="path3286" />
    <path
       style="fill:#bfbfff;fill-rule:evenodd;stroke:none;stroke-width:1px;stroke-linecap:butt;stroke-linejoin:miter;stroke-opacity:1;fill-opacity:1"
       d="M 573.98558,877.52704 L 554.65646,883.67106 L 544.5797,888.89901 L 533.29026,898.20869 L 523.0223,905.19019 L 506.62604,908.8056 L 467.80059,920.46113 L 445.31758,929.53615 L 424.90735,935.306 L 421.95637,943.95796 L 462.76873,998.02147 L 466.29859,1005.1812 L 486.64275,1010.3069 L 494.55144,1000.5933 L 507.91951,991.71574 L 527.83391,987.78556 L 550.78291,975.51969 L 586.07266,952.96715 L 560.22759,938.17982 L 566.38039,921.82471 C 566.38039,921.82471 576.42734,915.24559 577.64587,914.90112 C 578.86438,914.55666 584.09105,908.3205 584.36586,906.8832 C 584.64066,905.44591 584.97568,889.37584 584.97568,889.37584 L 580.47813,883.50935 L 573.98558,877.52704 z"
       id="path3288" />
    <path
       style="fill:#bfbfff;fill-rule:evenodd;stroke:none;stroke-width:1px;stroke-linecap:butt;stroke-linejoin:miter;stroke-opacity:1;fill-opacity:1"
       d="M 591.64547,955.47056 L 568.64853,972.5086 L 549.96434,983.56882 L 534.18321,990.74926 L 519.97902,996.46422 L 507.23833,999.04622 L 497.49602,1005.5392 L 492.46641,1013.7591 L 512.47613,1017.6197 C 512.47613,1017.6197 518.29978,1021.0719 519.60191,1021.0437 C 520.90406,1021.0155 531.87659,1021.6525 531.87659,1021.6525 L 538.19607,1023.2651 L 553.51119,1019.2755 C 553.51119,1019.2755 559.96807,1020.1694 561.79586,1019.6527 C 563.62364,1019.136 578.01318,1007.9302 578.01318,1007.9302 L 586.41769,996.37696 C 586.41769,996.37696 597.56971,987.78593 600.14417,986.37835 C 602.71861,984.97077 610.52557,981.06427 610.52557,981.06427 C 610.52557,981.06427 615.19675,973.96544 616.71991,973.53485 C 618.24305,973.10427 622.06584,972.70339 622.06584,972.70339 L 591.64547,955.47056 z"
       id="path3290" />
    <path
       style="fill:#ffffbf;fill-rule:evenodd;stroke:none;stroke-width:1px;stroke-linecap:butt;stroke-linejoin:miter;stroke-opacity:1;fill-opacity:1"
       d="M 527.76538,890.9331 L 555.17041,875.70804 L 577.40842,869.42148 L 599.89727,864.08373 L 611.27618,858.82758 L 625.56397,853.4289 L 641.48837,849.26706 L 654.80849,845.16165 L 665.18404,836.11032 L 680.34421,821.62759 L 693.54504,812.11748 L 702.39743,803.49675 L 710.18043,801.97634 L 711.55447,794.78988 L 714.34994,792.97991 L 717.06763,794.59094 L 719.06264,794.70678 L 744.09612,786.61025 L 745.9239,786.09355 L 747.15412,793.2236 L 744.6633,794.94745 L 738.67827,794.59997 L 725.08334,800.14268 L 711.10601,809.19251 L 686.99813,824.50519 L 674.35278,834.87798 L 664.03686,846.63166 L 650.7226,854.47433 L 633.49607,858.66437 L 616.16197,864.92422 L 610.79205,868.14177 L 584.86866,874.11054 L 579.82735,874.85589 L 588.43419,886.35874 L 589.35923,910.91002 L 580.64422,918.81211 L 570.15524,926.196 L 566.06936,935.50869 L 590.52868,950.00795 L 620.46078,920.81236 L 628.57236,916.81975 L 647.80031,899.1477 L 652.80009,889.57666 L 653.82797,873.65063 L 658.48746,859.07728 L 668.94077,846.60495 L 673.83882,842.84099 L 679.35784,846.37932 L 670.66682,851.89532 L 665.08175,859.25252 L 673.78447,861.21102 L 673.48568,865.03439 L 678.03118,866.12872 L 685.22943,845.05935 L 682.08781,838.12975 L 688.8733,836.55143 L 695.58101,838.39412 L 714.3658,856.19704 L 725.54709,866.2923 L 740.24711,858.73769 L 744.12368,857.3019 L 750.13853,859.00054 L 768.0819,852.56846 L 773.38047,839.17405 L 777.22137,832.64983 L 778.703,823.39355 L 772.57528,802.69234 L 765.1209,801.74054 L 754.47695,798.6313 L 748.98191,792.7069 L 746.07942,779.25156 L 744.62818,772.5239 L 736.05115,762.37223 L 717.43247,779.87205 L 709.51793,785.84837 L 698.97572,776.93205 L 677.91414,791.38356 L 678.9175,795.17872 L 673.6312,798.71254 L 668.61971,800.80906 L 662.70018,806.90119 L 659.56442,803.70883 L 645.00765,814.28207 L 635.37292,818.70526 L 632.66106,820.83149 L 627.57767,830.08626 L 619.85432,834.30901 L 610.16579,839.76711 L 601.44496,843.93194 L 596.32589,848.09828 L 560.48709,856.19028 L 519.80347,884.34646 L 527.76538,890.9331 z"
       id="path3292" />
    <path
       style="fill:#ffc2c2;fill-rule:evenodd;stroke:none;stroke-width:1px;stroke-linecap:butt;stroke-linejoin:miter;stroke-opacity:1;fill-opacity:1"
       d="M 701.62984,897.18655 L 704.88545,888.44848 L 707.39441,880.60129 L 710.4828,871.23069 L 720.5356,868.38882 L 688.90897,841.63987 L 688.58622,847.84933 L 684.72134,856.75963 L 681.19677,870.67225 L 668.3368,867.84956 L 668.71918,864.34245 L 666.28214,865.03139 L 664.65141,867.53179 L 660.54796,865.6327 L 658.83946,871.55411 L 660.30882,872.15843 L 656.32995,896.73641 L 650.74487,904.0936 L 640.72774,912.0239 L 624.48647,926.13245 L 610.87341,937.7985 L 596.40612,952.42526 L 625.60798,970.00255 L 637.29151,964.66028 L 641.49084,957.01503 L 648.21668,952.73437 L 654.91855,950.83979 L 658.89686,943.59692 L 669.38583,936.21303 L 680.31686,928.02438 L 685.37629,921.1557 L 694.16904,909.8326 L 700.09442,907.47774 L 700.00495,903.42421 L 701.62984,897.18655 z"
       id="path3294" />
    <path
       style="fill:#ffc2c2;fill-rule:evenodd;stroke:none;stroke-width:1px;stroke-linecap:butt;stroke-linejoin:miter;stroke-opacity:1;fill-opacity:1"
       d="M 712.6977,905.61437 C 712.20727,906.68561 712.86925,909.17123 713.73088,910.76072 C 714.46934,912.123 714.66533,914.29524 715.06869,915.82095 C 715.48515,917.3962 714.58645,919.04132 713.93962,920.21893 C 713.39008,921.21942 713.16679,922.6082 712.64335,923.98439 C 712.13652,925.3169 712.48705,927.31971 712.51179,928.44031 C 712.54728,930.04863 713.03199,931.64635 713.46135,933.27038 C 713.85962,934.77686 713.92364,936.25731 714.41092,938.10047 C 714.86268,939.80922 715.84844,940.4133 717.51687,939.94165 C 719.1756,939.47273 720.77395,939.36078 722.47456,938.88003 C 724.15786,938.40417 725.72849,938.30007 727.43227,937.81842 C 729.38467,937.26649 730.2835,936.74456 731.44625,935.66398 C 732.5076,934.67765 733.21147,933.41186 734.12827,932.18658 C 735.28092,930.64614 736.4672,930.20994 737.58679,929.16948 C 738.85765,927.98844 738.98302,927.09602 739.65956,925.86431 C 740.35301,924.60182 740.43812,922.56649 741.00964,921.06394 C 741.61161,919.48127 742.71436,917.96031 743.21981,917.04012 C 743.85979,915.87497 745.12474,915.07283 746.06907,914.19525 C 747.24616,913.10134 748.0013,911.61695 748.58388,910.08531 C 748.95382,909.11268 751.46873,906.81338 751.87516,906.43567 C 752.89611,905.48688 753.96862,903.95889 755.08284,902.46978 C 755.96014,901.2973 757.56389,900.38668 758.62497,899.76893 C 760.03034,898.95073 761.73285,898.55046 763.41544,898.0748 C 765.24322,897.5581 767.07101,897.0414 768.89879,896.52468 C 770.91334,895.95518 772.18261,895.69957 773.13379,893.96787 C 773.82235,892.71428 773.5776,891.64665 773.82082,890.37465 C 774.08415,888.99734 774.14948,887.90549 774.11958,886.55127 C 774.07881,884.70395 773.17312,883.21212 773.47466,881.63507 C 773.73346,880.28149 772.98283,878.53638 772.6087,877.12125 C 772.13209,875.31845 770.97457,875.44836 769.86118,874.15904 C 768.92646,873.07664 768.72124,871.11968 768.69059,869.73134 C 768.65809,868.25834 767.81445,866.41736 767.4364,864.98738 C 766.85405,862.78466 765.87554,863.72913 763.97203,864.26724 C 762.04272,864.81264 760.11338,865.35805 758.18406,865.90346 C 756.55937,866.36276 754.93467,866.82205 753.30998,867.28134 C 751.50213,867.79241 751.55007,867.49333 749.98886,869.5798 C 748.85451,871.09581 749.16081,871.85328 747.1396,872.42466 C 745.82357,872.7967 745.24886,874.65868 743.59748,875.12551 C 742.0151,875.57284 740.4229,875.97013 739.11163,876.73353 C 737.63821,877.59135 736.22912,877.88831 734.62579,878.34156 C 732.83364,878.84819 731.4243,879.9264 729.61431,880.43808 C 728.09115,880.86867 726.568,881.29925 725.04484,881.72984 C 723.14883,882.26583 722.35668,882.18566 720.91742,882.21684 C 719.31797,882.25147 717.60838,883.32219 716.81983,884.055 C 715.43306,885.34376 715.26167,886.37137 715.30253,888.22285 C 715.34306,890.05918 716.02297,891.237 715.78024,892.50652 C 715.53887,893.7689 714.8871,895.06954 714.40034,895.95571 C 713.71767,897.19859 713.31518,898.45133 712.79943,899.80729 C 712.25148,901.24793 711.42914,902.05443 711.89139,903.80291 C 712.06092,904.44416 712.42893,905.01055 712.6977,905.61437 z"
       id="path3296" />
    <path
       style="fill:#ffffbf;fill-rule:evenodd;stroke:none;stroke-width:1px;stroke-linecap:butt;stroke-linejoin:miter;stroke-opacity:1;fill-opacity:1"
       d="M 772.89803,796.48288 L 772.95238,778.11286 L 779.15313,756.98559 L 769.70904,776.99033 L 768.55601,783.7744 L 763.01302,782.62215 L 758.46113,795.1257 L 767.46848,796.99809 L 772.89803,796.48288 z"
       id="path3298" />
    <path
       style="fill:#bfbfff;fill-rule:evenodd;stroke:none;stroke-width:1px;stroke-linecap:butt;stroke-linejoin:miter;stroke-opacity:1;fill-opacity:1"
       d="M 819.27488,741.5646 C 818.05557,742.40649 817.64684,744.05088 817.36934,745.50229 C 816.99397,747.46551 817.00558,748.15833 816.62853,750.13042 C 816.37501,751.45632 815.93029,752.80707 815.33223,753.89589 C 814.56573,755.29136 814.33418,756.10158 814.03596,757.66135 C 813.74913,759.16149 812.73354,760.70534 812.51865,761.82919 C 812.11583,763.93604 811.53649,764.30608 812.16608,766.68747 C 812.58948,768.28897 812.55406,769.39337 813.03204,771.2013 C 813.36304,772.45335 813.46453,774.07558 813.89798,775.71512 C 814.31605,777.29644 814.73411,778.87775 815.15217,780.45909 C 815.63758,782.29512 816.18712,784.47452 816.87824,785.74945 C 817.9355,787.69983 818.16988,789.11355 819.73919,790.3791 C 820.79386,791.22961 822.04079,792.82492 822.95857,793.88771 C 824.27005,795.4064 825.88011,796.17367 826.78721,797.22409 C 827.90694,798.52076 828.6078,799.39584 830.06039,799.6978 C 831.57926,800.01354 831.03049,796.88474 831.13565,796.33471 C 831.53286,794.25721 833.39153,793.72218 832.70674,791.13195 C 832.40234,789.98056 832.88024,788.07311 832.45005,786.44591 C 832.09278,785.09454 832.62725,783.19598 832.80261,781.58762 C 832.96528,780.09577 833.59626,778.19032 833.84806,776.87337 C 834.21288,774.96533 834.37845,773.44365 834.80988,771.84285 C 835.34783,769.84692 835.28723,768.69489 834.69061,766.43815 C 834.27254,764.85683 833.85448,763.27551 833.43641,761.6942 C 832.95858,759.88682 832.46816,758.46898 832.79147,756.77799 C 833.18701,754.70929 833.40876,753.49719 833.36506,751.51733 C 833.32758,749.81882 833.71034,748.35676 834.10588,746.88918 C 834.42644,745.69981 834.18589,743.56974 834.15381,742.11701 C 834.11569,740.38932 834.95483,740.19332 834.36898,737.97738 C 833.94673,736.3802 833.73566,734.50762 834.02868,732.97506 C 834.35912,731.24678 834.16224,730.01581 834.46487,728.43304 C 834.80256,726.66683 835.07099,725.77219 834.5128,723.66087 C 834.09473,722.07955 833.67668,720.49823 833.25861,718.9169 C 832.82185,717.26487 833.09784,715.98991 833.39016,714.461 C 833.62292,713.24369 833.71934,712.0154 833.68894,710.63762 C 833.6526,708.99137 833.97385,708.00015 833.51586,706.26784 C 832.90108,703.94244 830.35926,708.2668 830.19475,708.56631 C 829.54098,709.75657 828.72544,711.3571 828.28921,712.504 C 827.73227,713.96825 827.23103,715.02412 826.85552,716.98811 C 826.51025,718.79393 825.88172,719.8205 825.64286,721.06983 C 825.29701,722.87866 824.69845,723.41799 824.73481,725.06545 C 824.77502,726.88741 823.1014,727.57072 822.44102,728.77299 C 821.75153,730.02831 822.1368,731.87129 821.92122,732.99875 C 821.53001,735.04491 822.24129,736.05004 820.79217,737.39674 C 819.53634,738.56382 819.45895,739.87621 819.27488,741.5646 z"
       id="path3300" />
    <path
       style="fill:#bfbfff;fill-rule:evenodd;stroke:none;stroke-width:1px;stroke-linecap:butt;stroke-linejoin:miter;stroke-opacity:1;fill-opacity:1"
       d="M 820.59096,679.67043 C 819.53324,680.65339 819.4883,676.05606 819.80862,675.47287 C 820.72196,673.81006 825.17025,675.39188 826.40291,675.64811 C 826.86482,675.74414 827.32674,675.84015 827.78866,675.93618 C 830.48541,676.49676 829.33071,674.33874 828.86392,672.5731 C 828.41558,670.87727 828.32965,669.19871 828.3026,667.97316 C 828.25109,665.63885 828.5052,665.1061 826.24795,665.15499 C 824.55461,665.19167 823.63946,666.58239 822.5386,667.22331 C 821.12382,668.04698 821.38066,669.59005 819.08007,670.24042 C 818.59756,670.37683 816.72221,672.23466 816.14721,672.76902 C 814.7247,674.091 814.57616,675.01699 813.16055,676.33255 C 811.83794,677.56169 811.42864,679.01717 810.86677,680.04009 C 810.16233,681.32258 809.9784,684.9271 810.01836,686.73805 C 810.03843,687.64675 808.03285,688.83336 807.72458,690.44559 C 807.41532,692.06307 806.76884,692.2801 806.81654,694.44122 C 806.8534,696.1114 807.7366,697.93414 807.76611,699.27129 C 807.78472,700.11508 806.3583,702.1129 806.16519,703.12287 C 805.90855,704.46519 804.69665,706.26904 804.12225,707.77922 C 803.49897,709.41788 803.58196,711.52276 802.93941,713.21212 C 802.2641,714.98754 802.41389,716.97979 801.67294,718.32875 C 800.83278,719.85834 800.70603,723.12947 800.74093,724.71044 C 800.77894,726.43285 800.44712,727.98468 799.77909,729.74096 C 799.11466,731.48783 800.13698,735.40489 799.7908,737.21549 C 799.39864,739.26652 798.80453,740.91519 799.38444,743.10869 C 799.82109,744.76031 799.81464,746.33261 800.63863,747.85265 C 801.41175,749.27883 801.77263,751.0787 802.50208,752.42437 C 803.19834,753.70876 804.93444,754.51871 805.99628,754.4957 C 807.80189,754.45659 808.91794,753.39296 809.401,752.5135 C 810.12936,751.18745 810.43929,750.94722 810.39266,748.83415 C 810.35691,747.21475 810.43026,745.62316 810.74522,743.97587 C 811.02253,742.52551 813.35384,740.63212 813.8693,739.69371 C 814.63877,738.29282 814.63169,736.79578 815.08195,735.61197 C 815.6992,733.98919 815.56865,732.85195 816.29463,731.53025 C 816.90771,730.4141 817.47275,729.13638 817.67452,728.08105 C 818.05933,726.06844 820.2143,723.92565 821.07339,722.36159 C 821.95419,720.75804 822.48218,720.26844 822.75791,718.82628 C 823.04493,717.32516 823.70019,716.15878 823.97059,714.74455 C 824.28495,713.10045 824.45684,711.44779 824.7114,710.11641 C 825.04575,708.36777 825.60137,707.59787 826.22871,705.94858 C 826.70912,704.6855 826.29873,702.17698 826.27665,701.1764 C 826.24203,699.60829 826.44832,698.22305 826.32459,696.40423 C 826.20035,694.57797 825.28828,692.48444 824.81956,690.71147 C 824.40149,689.13015 823.98342,687.54884 823.56536,685.9675 C 823.24082,684.73996 823.0807,682.89594 822.6994,681.45369 C 822.45344,680.52336 821.63779,680.46157 820.59096,679.67043 z"
       id="path3302" />
    <path
       style="fill:#ffffbf;fill-rule:evenodd;stroke:none;stroke-width:1px;stroke-linecap:butt;stroke-linejoin:miter;stroke-opacity:1;fill-opacity:1"
       d="M 638.49523,632.54098 C 647.03938,625.10573 657.9746,626.71464 669.22472,629.51465 C 675.42477,627.14456 682.22484,625.59745 686.56407,620.67503 L 717.42394,598.41463 C 721.07069,596.87384 724.71162,595.06888 728.41394,596.04618 L 772.11358,612.48837 L 741.77579,673.48783 L 731.53773,694.84093 L 716.36481,716.35849 L 710.42189,726.16042 L 699.38911,714.01999 L 706.2317,702.24091 L 698.77561,693.76563 C 698.77561,693.76563 683.61703,673.19295 682.35409,673.79608 C 681.09116,674.39922 679.72874,675.52273 679.72874,675.52273 L 638.49523,632.54098 z"
       id="path3304"
       sodipodi:nodetypes="cccccccccccccscc" />
    <path
       style="fill:#bfffbf;fill-rule:evenodd;stroke:none;stroke-width:1px;stroke-linecap:butt;stroke-linejoin:miter;stroke-opacity:1;fill-opacity:1"
       d="M 623.24603,605.34872 C 623.24603,605.34872 638.79069,590.61737 639.55193,589.90994 C 640.31316,589.2025 647.70064,579.48446 647.70064,579.48446 L 657.29391,569.14283 L 665.9659,559.8 L 667.38888,558.90551 L 672.0511,563.98659 C 672.0511,563.98659 685.82688,547.048 689.39511,545.30092 C 692.96332,543.55387 728.39096,504.49675 728.39096,504.49675 L 733.36054,500.8768 L 733.27842,499.66943 L 765.82542,465.85678 L 765.72168,463.67105 L 775.53977,455.97317 L 781.00641,462.30357 L 786.70252,461.43166 L 821.77293,501.72556 L 810.36296,517.74922 L 808.30409,522.51527 L 798.8531,546.8454 L 795.20658,562.64333 L 791.15785,577.81661 L 785.86354,591.8653 L 774.63521,608.57599 L 733.56516,593.11325 C 724.5824,587.52985 713.37976,594.85307 701.94447,603.52894 L 685.09369,616.90669 L 676.77647,622.21133 L 669.61845,624.72709 L 661.01163,624.45289 L 653.46453,621.91017 L 646.64394,622.11548 L 633.67297,627.75124 L 627.22452,622.19064 C 629.33622,615.60481 629.87159,609.46459 623.24603,605.34872 z"
       id="path3306"
       sodipodi:nodetypes="cscccccsccccccccccccccccccccccccccc" />
    <path
       style="fill:#ffffbf;fill-rule:evenodd;stroke:none;stroke-width:1px;stroke-linecap:butt;stroke-linejoin:miter;stroke-opacity:1;fill-opacity:1"
       d="M 554.75093,589.27086 L 608.23737,629.28102 L 613.75185,627.72211 L 621.26464,621.16816 L 624.53015,618.27608 L 624.80279,613.03053 L 617.57152,607.19898 L 615.76371,605.7411 L 638.72168,584.97617 L 642.06508,580.58536 L 651.59356,567.30864 L 661.61063,558.57004 L 667.57938,552.45257 L 672.15948,556.3263 L 697.27581,530.27497 L 727.36173,500.60369 L 699.64792,469.30544 L 700.94556,465.24685 L 654.80341,413.56189 L 651.20936,411.62449 L 637.00977,426.96005 L 632.54188,430.68429 L 630.79461,429.4554 L 591.37918,471.36267 L 638.88375,521.92413 L 624.55035,528.68339 L 605.52002,533.81703 L 599.6423,534.00191 L 593.2887,537.76699 L 554.75093,589.27086 z"
       id="path3308" />
    <path
       style="fill:#bfbfff;fill-rule:evenodd;stroke:none;stroke-width:1px;stroke-linecap:butt;stroke-linejoin:miter;stroke-opacity:1;fill-opacity:1"
       d="M 730.30293,495.58823 L 761.08953,464.98053 L 760.70468,462.62815 L 775.37126,450.85233 L 780.05084,454.20569 L 783.76597,456.60108 L 796.74542,456.37753 L 795.93253,449.71603 L 800.50414,448.17755 L 799.57016,441.05802 L 796.13191,436.12317 L 793.39901,420.40583 L 797.35672,411.16512 L 796.32749,407.27207 L 794.43753,404.60681 L 776.63623,387.4885 L 746.31865,358.89526 L 731.10799,343.50578 L 729.22227,343.54662 L 727.98093,345.12813 L 729.03177,349.99955 L 721.13411,354.20112 L 714.21443,342.37466 L 640.79473,409.8924 L 645.03317,413.37047 L 651.48201,406.37893 L 658.92963,409.44202 L 661.26498,414.68866 L 686.36657,443.27972 L 701.84098,460.56359 L 707.90882,466.47791 L 704.90286,468.55826 L 730.30293,495.58823 z"
       id="path3310" />
    <path
       style="fill:#ffc2c2;fill-rule:evenodd;stroke:none;stroke-width:1px;stroke-linecap:butt;stroke-linejoin:miter;stroke-opacity:1;fill-opacity:1"
       d="M 577.83107,403.08005 L 619.64882,434.82132 L 631.42628,422.87777 L 634.55757,423.96151 L 641.26595,416.15826 L 635.11599,409.03656 L 714.56498,335.63037 L 723.63414,349.31037 L 724.89707,348.70723 L 723.92414,342.33707 L 734.32183,333.24476 L 702.43559,263.74714 L 685.93959,273.08671 L 674.47373,279.03533 L 668.28439,285.21515 L 661.71869,294.45477 L 651.32948,308.9593 L 643.81668,315.51324 L 637.83057,323.35843 L 631.78815,333.68072 L 628.53113,341.985 L 619.56488,355.59501 L 607.18623,367.95464 L 601.2649,378.73494 L 594.11536,386.6629 L 590.71143,390.82471 L 583.89084,391.03003 L 577.83107,403.08005 z"
       id="path3312" />
    <path
       style="fill:#ffffbf;fill-rule:evenodd;stroke:none;stroke-width:1px;stroke-linecap:butt;stroke-linejoin:miter;stroke-opacity:1;fill-opacity:1"
       d="M 736.61864,326.68863 L 756.99403,322.15922 C 756.99403,322.15922 769.70123,314.62909 771.62591,313.83886 C 773.55057,313.04867 834.86344,277.74925 834.86344,277.74925 L 897.38392,347.44701 L 888.71616,359.49594 L 877.01276,354.68254 L 872.13842,355.076 L 868.09435,360.40324 L 866.93515,363.19212 L 869.24467,364.7543 L 867.56641,369.16663 L 872.10754,373.78971 L 877.24989,377.99671 L 873.18843,385.05169 L 881.8122,396.15031 L 882.78089,399.81434 L 871.81714,393.31513 L 867.59143,397.95537 L 872.37473,403.49446 L 864.40383,399.34873 L 859.91435,402.09459 L 861.25054,409.83874 L 858.6942,417.20659 L 855.3508,421.59741 L 852.8423,421.07596 L 848.396,425.77855 L 852.03324,429.67269 L 844.38198,437.49636 L 803.52445,404.00693 L 798.14418,401.59001 L 733.18846,339.7181 L 739.58102,335.20367 L 736.61864,326.68863 z"
       id="path3314" />
    <path
       style="fill:#ffc2c2;fill-rule:evenodd;stroke:none;stroke-width:1px;stroke-linecap:butt;stroke-linejoin:miter;stroke-opacity:1;fill-opacity:1"
       d="M 779.11157,610.26396 C 801.03235,615.60941 811.77966,627.88134 810.34577,647.70445 L 832.5641,628.62531 L 836.29659,629.29299 L 834.70511,625.06664 L 836.78558,621.27898 L 844.2895,621.86496 L 842.17897,619.26206 C 842.17897,619.26206 841.45245,616.51402 842.93595,615.84853 C 844.41947,615.18302 850.11557,614.31113 850.11557,614.31113 L 878.43263,582.43261 C 866.2501,586.85482 864.70481,583.02749 869.81309,574.0401 L 889.98144,552.58708 C 886.13415,545.72763 896.36852,541.79539 903.96046,537.31386 L 906.45624,529.71701 C 924.95158,512.51689 947.83688,507.09623 941.18021,451.2338 L 946.93767,425.48663 L 954.90515,401.822 L 959.95687,399.40944 L 962.25792,395.5594 L 894.4944,359.83141 L 890.73144,365.32531 L 874.59063,358.07456 L 872.92973,360.75914 L 874.88446,366.3595 L 872.44074,368.77315 L 881.57933,375.54222 L 881.60515,379.22669 L 881.65258,383.88952 L 879.18726,385.32481 L 885.2767,392.2175 L 887.13617,401.04432 L 884.71827,407.14244 L 878.59413,403.70522 L 879.10007,406.51561 L 873.84936,409.9689 L 865.35516,404.7405 L 865.55374,416.25192 L 860.04774,423.22302 L 855.54514,430.40271 L 844.39047,442.90857 L 801.38344,407.5656 L 801.35297,413.72717 L 798.95242,418.09756 L 800.03756,432.06565 L 806.03173,442.1848 L 804.58253,451.94697 L 801.39492,453.34032 L 802.54948,460.39747 L 797.39403,460.62429 L 794.34488,460.74792 L 792.76188,461.93378 L 829.67906,502.93619 L 815.37998,518.79213 L 812.68095,524.7236 L 804.59239,547.93023 L 799.90351,564.26895 L 791.73705,588.97432 L 786.11843,600.89962 L 779.11157,610.26396 z"
       id="path3316"
       sodipodi:nodetypes="ccccccccsccccccccccccccccccccccccccccccccccccccccccccccccccc" />
    <path
       style="fill:#808080;fill-opacity:1;fill-rule:evenodd;stroke:none;stroke-width:1px;stroke-linecap:butt;stroke-linejoin:miter;stroke-opacity:1"
       d="M 840.03626,275.79471 L 904.32561,347.69971 L 896.1337,356.16846 L 964.47682,390.50201 L 980.09515,371.56584 L 984.12187,367.96632 L 984.80984,358.91159 L 999.60174,350.29989 L 1003.6416,342.26654 L 1008.8318,338.58422 L 1013.7667,338.41976 L 1017.4475,331.7185 L 1004.758,324.96877 L 949.50232,295.30351 L 905.44487,242.53699 L 840.03626,275.79471 z"
       id="path3318" />
    <path
       style="fill:#bfffbf;fill-opacity:1;fill-rule:evenodd;stroke:none;stroke-width:1px;stroke-linecap:butt;stroke-linejoin:miter;stroke-opacity:1"
       d="M 706.0601,259.52298 L 734.98822,323.21166 L 750.99098,319.18001 L 776.38803,305.84746 L 813.58838,284.25582 L 836.49852,271.3802 L 855.26085,261.64608 L 906.37926,237.10436 L 935.90514,272.5666 L 953.83175,292.84901 L 1019.2468,327.76419 L 1028.6758,315.00781 C 1028.6758,315.00781 1034.2465,310.97183 1034.0044,310.05582 C 1033.7622,309.13981 1038.0794,286.01486 1038.0794,286.01486 L 1042.5603,277.85682 L 1044.1997,274.19385 L 1045.991,252.27518 L 1044.1578,234.58068 L 1045.5595,220.15568 L 1050.8974,195.51159 L 1060.0672,171.01482 L 1069.9768,144.83225 L 1079.5138,136.96772 L 1084.6997,130.57931 L 1093.337,124.69196 L 1098.7824,117.49186 L 1108.0603,97.886907 L 1112.4244,91.976935 L 1102.7537,91.265171 L 1085.8469,94.567877 L 1072.0284,96.99758 L 1063.1447,99.262848 L 1055.8182,96.657755 L 1052.0599,92.305613 L 1050.2694,89.120003 L 1046.5932,85.975228 L 1039.2882,84.348527 L 1029.6781,83.865728 L 1019.4104,86.276112 L 1006.154,89.03913 L 1001.3835,91.618319 C 1001.3835,91.618319 985.65245,115.50872 984.32902,115.88284 C 983.00559,116.25697 974.75309,124.49673 974.75309,124.49673 L 966.27163,127.38663 L 960.51919,130.73564 L 955.57973,140.74613 L 947.53048,150.65127 L 937.75131,157.59978 L 926.66182,160.4886 L 913.56132,160.25414 L 907.14293,161.08411 L 899.90701,165.0986 L 890.66854,171.40204 L 878.82205,177.70438 L 865.50942,182.94449 L 857.38695,184.50231 L 851.24544,182.79282 L 843.14457,185.32901 L 833.82819,193.13118 L 815.70177,198.99376 L 809.59033,203.67485 L 724.84827,253.47333 L 718.2309,255.34401 L 711.89042,254.67525 L 709.70199,253.57107 L 707.34039,257.19211 L 706.0601,259.52298 z"
       id="path3320" />
    <path
       style="opacity:1;fill:#808080;fill-opacity:1;fill-rule:nonzero;stroke:#808080;stroke-width:2;stroke-linecap:round;stroke-linejoin:round;stroke-miterlimit:4;stroke-dasharray:none;stroke-dashoffset:7.4;stroke-opacity:1"
       d=""
       id="path3408" />
    <path
       style="opacity:1;fill:#808080;fill-opacity:1;fill-rule:nonzero;stroke:#808080;stroke-width:0.51719743;stroke-linecap:round;stroke-linejoin:round;stroke-miterlimit:4;stroke-dasharray:none;stroke-dashoffset:7.4;stroke-opacity:1"
       d=""
       id="path3460" />
    <path
       style="fill:#666666;fill-opacity:1;fill-rule:evenodd;stroke:none;stroke-width:1px;stroke-linecap:butt;stroke-linejoin:miter;stroke-opacity:1"
       d="M -388,-109.63782 L -388,-109.63782 z"
       id="path3469" />
    <path
       style="fill:#000000;fill-opacity:1;stroke:none"
       d="M 521.52483,529.50572 521.52483,517.85882 519.94782,519.06259 C 518.35421,520.27901 514.74613,522.24389 514.10603,522.24389 513.89946,522.24389 513.75874,521.23413 513.75874,519.75173 L 513.75874,517.25957 515.69507,516.29076 C 517.9615,515.15678 522.05271,511.29975 522.38238,509.98622 522.60492,509.09955 522.67743,509.07531 525.10682,509.07531 L 527.60264,509.07531 527.60264,525.11396 527.60264,541.15262 524.56373,541.15262 521.52483,541.15262 521.52483,529.50572 z"
       id="path3118"
       inkscape:connector-curvature="0" />
    <path
       style="fill:#000000;fill-opacity:1;stroke:none"
       d="M 814.01349,366.50011 C 814.77513,362.98306 816.1603,361.02216 822.40352,354.62286 828.82499,348.04086 829.38584,347.18432 829.07571,344.4329 828.85046,342.43445 828.07096,341.36488 826.4958,340.89296 823.64633,340.03923 821.02213,341.52185 820.56198,344.24543 L 820.32026,345.67618 818.24181,345.47449 C 814.48222,345.10967 814.53158,345.13727 814.78666,343.54212 815.11091,341.51434 816.63755,338.92578 818.16014,337.82207 821.69491,335.25975 827.78243,335.19703 831.54081,337.68421 834.09385,339.37372 835.51612,343.08174 834.88907,346.41346 834.2419,349.85206 833.08044,351.58616 828.11052,356.53403 825.54851,359.08468 823.28843,361.47781 823.08811,361.85211 822.72905,362.52302 822.81248,362.53266 828.98241,362.53266 L 835.24092,362.53266 835.24092,365.23391 835.24092,367.93515 824.47182,367.93515 813.70273,367.93515 814.01349,366.50011 z"
       id="path3888"
       inkscape:connector-curvature="0" />
    <path
       style="fill:#000000;fill-opacity:1;stroke:none"
       d="M 559.11329,764.5419 C 557.5861,764.0442 555.65413,762.71785 554.40278,761.30801 553.73034,760.5504 552.28529,757.33936 552.28529,756.60275 552.28529,756.44509 553.00702,756.2188 553.88915,756.09989 554.77128,755.98098 556.03611,755.80294 556.69989,755.70424 557.86441,755.53109 557.92091,755.57201 558.30985,756.87019 559.43053,760.61068 564.26312,761.40083 566.38735,758.1909 567.09001,757.12911 567.29121,756.41019 567.29986,754.93024 567.31328,752.63787 566.69175,751.29903 565.11621,750.22637 564.11777,749.54662 563.65462,749.44969 562.13103,749.60164 L 560.32765,749.7815 560.56559,747.69238 C 560.69645,746.54336 560.87117,745.4893 560.95386,745.35002 561.03654,745.21073 561.62175,745.09677 562.25431,745.09677 563.77466,745.09677 565.69036,743.44693 565.98334,741.88526 566.48657,739.20279 564.87726,737.33069 562.0681,737.33069 560.41522,737.33069 558.82044,738.67374 558.48565,740.34768 558.25157,741.5181 558.13902,741.53971 555.06452,741.00431 L 552.89242,740.62605 553.10216,739.57737 C 553.69166,736.62989 555.875,734.13241 558.80743,733.05126 560.27163,732.51143 564.66278,732.53158 566.21428,733.08526 569.28503,734.1811 571.55576,736.93057 571.79749,739.84559 572.01189,742.4309 571.43384,743.79686 569.30015,745.74693 L 567.44926,747.43854 568.73074,747.97385 C 573.96565,750.16061 574.92175,757.26117 570.58645,761.7555 568.56265,763.85354 566.41144,764.77801 563.2591,764.90438 561.57698,764.97182 560.01285,764.83506 559.11329,764.5419 z"
       id="path3890"
       inkscape:connector-curvature="0" />
    <path
       style="fill:#000000;fill-opacity:1;stroke:none"
       d="M 375.69125,882.35389 375.69125,879.14616 368.93814,879.14616 362.18502,879.14616 362.18502,876.67943 362.18502,874.2127 369.22636,863.93292 376.26769,853.65314 378.68072,853.55393 381.09375,853.45473 381.09375,863.76802 381.09375,874.08132 383.11968,874.08132 385.14562,874.08132 385.14562,876.61374 385.14562,879.14616 383.11968,879.14616 381.09375,879.14616 381.09375,882.35389 381.09375,885.56162 378.3925,885.56162 375.69125,885.56162 375.69125,882.35389 z M 375.69125,868.51 C 375.69125,865.44577 375.56327,862.93868 375.40685,862.93868 375.14465,862.93868 367.92517,873.52623 367.92517,873.91076 367.92517,874.00457 369.67254,874.08132 371.80821,874.08132 L 375.69125,874.08132 375.69125,868.51 z"
       id="path3892"
       inkscape:connector-curvature="0" />
    <path
       style="fill:#000000;fill-opacity:1;stroke:none"
       d="M 517.28514,980.09129 C 513.96445,979.43431 510.95277,976.83089 509.92141,973.72575 509.59844,972.75337 509.38945,971.90251 509.457,971.83497 509.52455,971.76742 510.90754,971.60442 512.53031,971.47275 515.28138,971.24953 515.48088,971.27642 515.48206,971.87068 515.48419,972.94846 516.69066,974.55904 517.93997,975.15187 519.51323,975.89843 520.80845,975.86178 522.16913,975.03219 525.48207,973.01235 525.42385,965.34543 522.08355,963.76035 520.02636,962.78415 517.49174,963.17325 515.81845,964.72213 515.01367,965.46707 514.8594,965.48736 512.5093,965.1573 510.97464,964.94177 510.0959,964.67061 510.18103,964.43886 510.25624,964.23413 510.97821,960.53389 511.78541,956.21612 L 513.25305,948.36562 521.28887,948.36562 529.32469,948.36562 529.32469,951.06686 529.32469,953.76811 523.47413,953.76811 517.62357,953.76811 517.2049,956.50304 C 516.97464,958.00725 516.84032,959.29206 516.90643,959.35816 516.97253,959.42427 517.70444,959.24203 518.53288,958.95319 522.67791,957.508 527.75501,959.88958 529.7937,964.23544 530.37016,965.46429 530.50648,966.40068 530.50648,969.13145 530.50648,972.04518 530.39567,972.71629 529.69804,974.02747 527.86044,977.48119 525.95415,979.08518 522.6707,979.94041 520.5736,980.48664 519.44348,980.5183 517.28514,980.09129 z"
       id="path3894"
       inkscape:connector-curvature="0" />
    <path
       style="fill:#000000;fill-opacity:1;stroke:none"
       d="M 705.83361,665.96084 C 702.88196,664.86175 700.60508,662.26319 699.45901,658.68561 698.56818,655.9048 698.20723,648.40387 698.80035,644.99792 699.98453,638.19789 703.54525,634.43988 709.1446,634.08054 714.07664,633.76402 717.45628,636.0321 718.67681,640.4776 L 719.01614,641.71355 716.26606,641.99705 713.51597,642.28056 712.95336,641.04067 C 711.73372,638.35278 708.76324,637.95414 706.70331,640.2019 705.48076,641.53594 704.9769,643.02257 704.68272,646.1636 L 704.47716,648.35836 705.45118,647.46836 C 707.02465,646.0306 708.4265,645.48768 710.54471,645.4957 714.06087,645.50902 717.02522,647.5669 718.65442,651.12553 719.30582,652.54838 719.48674,653.50754 719.49582,655.58628 719.51578,660.15915 717.88771,663.29064 714.43973,665.31129 713.14365,666.07084 712.4107,666.23825 709.99414,666.32669 708.10256,666.39591 706.66179,666.26922 705.83361,665.96084 z M 711.6301,661.20416 C 713.06432,660.4625 713.75234,658.67854 713.74078,655.73144 713.72895,652.71617 713.01786,651.08549 711.30416,650.14378 709.29105,649.03754 706.82428,649.8496 705.69189,651.99134 704.92708,653.43787 704.90429,657.42012 705.65278,658.8257 707.0182,661.3898 709.42168,662.34618 711.6301,661.20416 z"
       id="path3896"
       inkscape:connector-curvature="0" />
    <path
       style="fill:#000000;fill-opacity:1;stroke:none"
       d="M 632.64739,866.62152 C 632.64739,860.75154 636.03209,851.27132 640.43403,844.81188 641.35128,843.4659 642.10175,842.28351 642.10175,842.18433 642.10175,842.08516 638.98688,842.00401 635.17981,842.00401 L 628.25786,842.00401 628.25786,839.30276 628.25786,836.60152 638.55637,836.60152 648.85487,836.60152 648.85487,838.79458 C 648.85487,840.9083 648.79649,841.0601 647.24107,842.99034 642.67167,848.66092 639.32716,856.94021 638.35046,864.99894 L 637.94539,868.34117 635.29639,868.34117 632.64739,868.34117 632.64739,866.62152 z"
       id="path3898"
       inkscape:connector-curvature="0" />
    <path
       style="fill:#000000;fill-opacity:1;stroke:none"
       d="M -83.351915,578.85539 C -85.448255,578.16139 -86.621405,577.44832 -87.978205,576.04341 -89.673825,574.28766 -90.336325,572.54658 -90.353515,569.80099 -90.373535,566.60317 -89.140845,564.09283 -86.851815,562.66989 -85.948275,562.10823 -85.209025,561.54759 -85.209025,561.42403 -85.209025,561.30048 -85.735305,560.94842 -86.378535,560.64169 -88.854345,559.46106 -90.185135,555.72763 -89.300815,552.44351 -88.779195,550.50635 -86.916355,548.48265 -84.801645,547.55582 -82.276935,546.4493 -78.016845,546.44689 -75.498965,547.55056 -72.442735,548.8902 -70.689825,551.49987 -70.689825,554.71023 -70.689825,557.0973 -71.748245,559.19399 -73.618855,560.51251 L -75.095595,561.55341 -74.158915,562.02796 C -72.592395,562.82159 -70.726665,564.83832 -70.141525,566.37048 -69.401925,568.30708 -69.637115,572.20058 -70.606855,574.07406 -72.234185,577.21796 -75.347025,579.01622 -79.468875,579.19356 -80.964715,579.25792 -82.554135,579.1195 -83.351915,578.85539 z M -77.737295,574.05167 C -76.479235,573.4011 -75.434585,571.23307 -75.424425,569.25162 -75.408125,566.07351 -77.220595,564.11688 -80.183065,564.11448 -82.876345,564.1123 -84.533715,566.04758 -84.533715,569.19467 -84.533715,572.43737 -82.749605,574.57662 -80.043005,574.57929 -79.337365,574.57998 -78.299795,574.34255 -77.737295,574.05167 z M -78.264085,558.8917 C -76.227685,558.04084 -75.487775,555.14804 -76.769045,553.04657 -77.885465,551.21548 -80.403445,550.72231 -82.404975,551.94272 -84.797595,553.40159 -84.655305,557.55312 -82.170125,558.79461 -80.728505,559.51478 -79.809965,559.53761 -78.264085,558.8917 z"
       id="path3900"
       inkscape:connector-curvature="0" />
    <path
       style="fill:#000000;fill-opacity:1;stroke:none"
       d="M 870.01403,513.84922 C 867.01049,513.21066 864.69826,511.0246 863.7724,507.94819 L 863.3118,506.41773 864.21763,506.24811 C 864.71583,506.15481 865.96416,505.98623 866.99167,505.87347 L 868.85989,505.66847 869.29581,506.87397 C 869.84533,508.39365 870.99885,509.16004 872.70131,509.13654 874.37199,509.11348 875.62091,508.30732 876.42364,506.73384 877.04282,505.52015 877.78555,502.25058 877.78555,500.7386 877.78555,499.95526 877.78395,499.95552 876.38289,500.97044 871.93098,504.19539 865.99449,502.24101 863.5658,496.75086 862.67725,494.74227 862.51133,490.85222 863.21153,488.44493 863.90895,486.04718 865.83401,483.75872 868.14908,482.57531 869.89728,481.68168 870.47751,481.55902 872.86662,481.57805 876.20708,481.60466 878.07461,482.40068 880.24813,484.72435 882.72336,487.37056 883.85594,491.42269 883.86081,497.64972 883.86369,501.34032 883.20368,505.30917 882.21559,507.54292 881.27466,509.67005 878.75197,512.24347 876.77328,513.09468 874.92481,513.88988 871.83014,514.23533 870.01403,513.84922 z M 875.21435,497.56519 C 876.60809,496.46887 877.11024,495.16795 877.11024,492.65354 877.11024,488.65971 875.40549,486.33981 872.47068,486.33981 870.46497,486.33981 869.16655,487.6003 868.6603,490.03888 867.72126,494.56222 869.62645,498.27032 872.88954,498.27032 873.82678,498.27032 874.62616,498.02786 875.21435,497.56519 z"
       id="path3902"
       inkscape:connector-curvature="0" />
    <path
       style="fill:#000000;fill-opacity:1;stroke:none"
       d="M 659.49103,364.1018 C 654.85828,361.93987 652.92235,356.50893 653.34747,346.86704 653.67823,339.36528 655.381,335.41016 659.15337,333.38134 660.2482,332.79253 661.07954,332.6545 663.5429,332.65253 666.26986,332.65036 666.7479,332.74775 668.19991,333.60124 672.27872,335.9988 674.18732,341.90496 673.73019,350.7147 673.22531,360.44466 670.04094,364.87422 663.5429,364.88554 661.76792,364.88863 660.75887,364.69345 659.49103,364.1018 z M 665.51573,359.4752 C 666.75215,358.50264 667.35623,356.14578 667.61164,351.29789 668.01302,343.67922 667.00209,338.56829 664.90472,337.61266 663.67624,337.05293 663.04012,337.10579 661.78342,337.87204 659.94996,338.98996 659.49015,341.20864 659.5067,348.8576 659.52213,355.98379 659.82495,357.68486 661.34955,359.20945 662.52581,360.38572 664.22075,360.49384 665.51573,359.4752 z"
       id="path3904"
       inkscape:connector-curvature="0" />
    <path
       style="fill:#000000;fill-opacity:1;stroke:none"
       d="M 637.71223,352.89241 637.71223,341.22622 635.60188,342.72032 C 633.40762,344.27383 631.99995,345.06182 630.70587,345.46101 629.96465,345.68966 629.94614,345.63361 629.94614,343.16 L 629.94614,340.62463 631.90851,339.5787 C 634.56696,338.16176 637.07977,335.899 638.07208,334.02847 L 638.89286,332.48128 641.34145,332.48128 643.79003,332.48128 643.79003,348.51994 643.79003,364.55859 640.75113,364.55859 637.71223,364.55859 637.71223,352.89241 z"
       id="path3906"
       inkscape:connector-curvature="0" />
    <path
       style="fill:#000000;fill-opacity:1;stroke:none"
       d="M 618.8035,668.61772 C 618.8035,662.2107 618.7096,656.96859 618.59483,656.96859 618.48006,656.96859 617.86499,657.42619 617.22799,657.98548 616.2481,658.84584 611.76877,661.35812 611.21467,661.35812 611.11718,661.35812 611.03741,660.1656 611.03741,658.70809 L 611.03741,656.05806 612.30362,655.55133 C 614.273,654.7632 617.63125,652.04814 618.77788,650.31705 619.3491,649.45466 619.81646,648.62318 619.81646,648.4693 619.81646,648.31543 620.95605,648.18954 622.34888,648.18954 L 624.8813,648.18954 624.8813,664.22819 624.8813,680.26685 621.8424,680.26685 618.8035,680.26685 618.8035,668.61772 z"
       id="path3908"
       inkscape:connector-curvature="0" />
    <path
       style="fill:#000000;fill-opacity:1;stroke:none"
       d="M 643.79003,668.61996 643.79003,656.97308 641.51085,658.53624 C 639.61917,659.83363 636.73103,661.35812 636.16478,661.35812 636.08732,661.35812 636.03212,660.18054 636.04211,658.74128 L 636.06027,656.12445 638.02589,655.164 C 640.59788,653.90727 643.126,651.66676 644.14989,649.73672 L 644.97067,648.18954 647.41925,648.18954 649.86784,648.18954 649.86784,664.22819 649.86784,680.26685 646.82893,680.26685 643.79003,680.26685 643.79003,668.61996 z"
       id="path3910"
       inkscape:connector-curvature="0" />
    <path
       style="fill:#000000;fill-opacity:1;stroke:none"
       d="M -53.807024,676.21497 C -53.807024,665.62986 -53.936414,663.91583 -54.648464,665.06796 -55.020704,665.67025 -57.842624,667.46588 -59.725604,668.29863 L -61.573114,669.11568 -61.572314,666.50311 -61.571514,663.89053 -59.656594,662.8899 C -57.212934,661.61297 -54.021324,658.66494 -53.234834,656.95825 L -52.625234,655.63539 -50.177224,655.62668 -47.729224,655.61796 -47.729224,671.65662 -47.729224,687.69527 -50.768124,687.69527 -53.807024,687.69527 -53.807024,676.21497 z"
       id="path3912"
       inkscape:connector-curvature="0" />
    <path
       style="fill:#000000;fill-opacity:1;stroke:none"
       d="M -38.804114,686.42906 C -38.240534,683.20313 -36.692694,681.0089 -30.613924,674.81861 -27.195804,671.33779 -24.556504,668.36135 -24.261064,667.65427 -23.983094,666.98897 -23.755654,665.66484 -23.755654,664.71175 -23.755654,663.19122 -23.896344,662.83818 -24.903684,661.83083 -25.932154,660.80237 -26.245944,660.6828 -27.916684,660.6828 -30.296254,660.6828 -31.687024,661.72514 -32.240554,663.92343 -32.658734,665.58416 -32.608914,665.56834 -36.227394,665.19013 L -38.330864,664.97027 -38.104864,663.75509 C -37.159444,658.67183 -33.568064,655.85428 -27.976354,655.80898 -24.790624,655.78317 -22.713424,656.44316 -20.868074,658.06751 -18.572204,660.08841 -17.857524,661.67886 -17.861044,664.75934 -17.863574,666.97565 -18.016224,667.62811 -19.006464,669.65535 -19.956514,671.60029 -20.964624,672.79797 -24.991214,676.76553 -27.654444,679.38972 -29.833464,681.70688 -29.833464,681.91478 -29.833464,682.17968 -28.014884,682.29278 -23.755654,682.29278 L -17.677844,682.29278 -17.677844,684.99403 -17.677844,687.69527 -28.351584,687.69527 -39.025324,687.69527 -38.804114,686.42906 z"
       id="path3914"
       inkscape:connector-curvature="0" />
    <path
       style="fill:#000000;fill-opacity:1;stroke:none"
       d="M 924.04442,211.08305 924.04442,199.42298 922.27172,200.74733 C 920.49164,202.07719 917.27871,203.83439 916.62721,203.83439 916.41865,203.83439 916.27833,202.83202 916.27833,201.34223 L 916.27833,198.85006 918.14331,197.90647 C 920.60628,196.66032 923.76014,193.77002 924.53713,192.04697 L 925.15995,190.66581 927.64108,190.66581 930.12222,190.66581 930.12222,206.70446 930.12222,222.74312 927.08332,222.74312 924.04442,222.74312 924.04442,211.08305 z"
       id="path3916"
       inkscape:connector-curvature="0" />
    <path
       style="fill:#000000;fill-opacity:1;stroke:none"
       d="M 947.4329,223.08054 C 944.25212,222.41238 941.76353,220.58369 940.45119,217.95017 939.97016,216.98486 939.57659,215.78691 939.57659,215.28806 939.57659,214.40595 939.64573,214.37458 942.09653,214.14492 944.87255,213.88479 945.31674,214.00779 945.31674,215.03668 945.31674,215.41899 945.90664,216.3217 946.62764,217.04269 947.80652,218.22158 948.11137,218.35359 949.65479,218.35359 951.08651,218.35359 951.5655,218.18285 952.54397,217.32374 953.99831,216.04682 954.57715,214.38316 954.32064,212.21737 953.95673,209.14469 952.19525,207.72005 949.02815,207.93691 L 947.30228,208.05509 947.51573,206.36681 C 947.85062,203.71798 947.9251,203.59789 949.3771,203.36571 951.45476,203.03348 952.79674,201.62812 952.9937,199.57829 953.13411,198.11698 953.03655,197.7534 952.25465,196.82417 951.10777,195.46118 949.40691,195.08863 947.80928,195.85049 946.60368,196.4254 945.32014,198.16566 945.318,199.22822 945.31704,199.70735 945.1371,199.81288 944.55701,199.67452 944.13916,199.57486 943.10068,199.39296 942.24928,199.2703 939.82176,198.92057 939.72133,198.77977 940.45134,196.74965 941.30511,194.37542 942.90389,192.60369 945.0103,191.69754 949.71274,189.6746 955.03664,190.94602 957.64118,194.71395 958.5533,196.0335 958.65414,196.43966 958.65414,198.79375 958.65414,201.20886 958.57478,201.50701 957.61278,202.70566 957.04002,203.41932 956.09622,204.30711 955.51543,204.67853 954.93465,205.04995 954.45418,205.42981 954.44772,205.52267 954.44126,205.61552 955.12078,205.97312 955.95775,206.31732 961.40098,208.55585 961.94188,216.26657 956.96312,220.64906 954.54054,222.78149 950.68821,223.76435 947.4329,223.08054 z"
       id="path3918"
       inkscape:connector-curvature="0" />
    <path
       style="fill:#000000;fill-opacity:1;stroke:none"
       d="M 716.04839,556.4989 716.04839,544.83271 713.93804,546.32682 C 711.74378,547.88033 710.33611,548.66832 709.04203,549.06751 708.30081,549.29616 708.2823,549.24011 708.2823,546.7665 L 708.2823,544.23112 710.24467,543.18519 C 712.90312,541.76825 715.41593,539.50549 716.40824,537.63496 L 717.22902,536.08778 719.67761,536.08778 722.12619,536.08778 722.12619,552.12643 722.12619,568.16509 719.08729,568.16509 716.04839,568.16509 716.04839,556.4989 z"
       id="path3920"
       inkscape:connector-curvature="0" />
    <path
       style="fill:#000000;fill-opacity:1;stroke:none"
       d="M 743.73617,564.95736 743.73617,561.74963 737.15188,561.74963 730.56759,561.74963 730.58144,558.96397 730.59528,556.17831 737.4337,546.21746 744.27212,536.25661 746.87422,536.15799 749.47632,536.05937 749.47632,546.20325 749.47632,556.34713 751.33343,556.34713 753.19053,556.34713 753.19053,559.04838 753.19053,561.74963 751.33343,561.74963 749.47632,561.74963 749.47632,564.95736 749.47632,568.16509 746.60624,568.16509 743.73617,568.16509 743.73617,564.95736 z M 743.73617,550.77581 C 743.73617,547.71158 743.67048,545.20449 743.5902,545.20449 743.47008,545.20449 737.04252,554.51084 736.18589,555.92506 735.98717,556.25312 736.79957,556.34713 739.8332,556.34713 L 743.73617,556.34713 743.73617,550.77581 z"
       id="path3922"
       inkscape:connector-curvature="0" />
    <path
       style="fill:#000000;fill-opacity:1;stroke:none"
       d="M 356.78253,664.22818 C 356.78253,657.82116 356.68863,652.57906 356.57386,652.57906 356.45909,652.57906 355.84402,653.03666 355.20702,653.59594 354.22713,654.4563 349.7478,656.96858 349.1937,656.96858 349.09621,656.96858 349.01644,655.77607 349.01644,654.31855 L 349.01644,651.66853 350.28265,651.1618 C 352.25203,650.37367 355.61028,647.6586 356.75691,645.92751 357.32813,645.06513 357.79549,644.23364 357.79549,644.07977 357.79549,643.9259 358.93508,643.8 360.32791,643.8 L 362.86033,643.8 362.86033,659.83866 362.86033,675.87731 359.82143,675.87731 356.78253,675.87731 356.78253,664.22818 z"
       id="path3924"
       inkscape:connector-curvature="0" />
    <path
       style="fill:#000000;fill-opacity:1;stroke:none"
       d="M 378.89638,675.60821 C 375.74872,674.51975 373.55687,672.1989 372.71567,669.06374 L 372.38236,667.8215 373.61474,667.64278 C 377.99865,667.00705 378.39245,667.00826 378.39376,667.65747 378.39446,667.99989 378.69163,668.7665 379.05414,669.36104 380.8928,672.37654 385.46935,672.13902 386.98286,668.94955 387.76703,667.29703 387.80329,663.24389 387.04699,661.78136 386.38154,660.49451 385.08304,659.44625 383.8074,659.16607 382.5205,658.88342 380.16969,659.53712 378.83074,660.54994 377.88265,661.26712 377.52333,661.34122 375.91221,661.15187 374.90169,661.0331 373.88528,660.81874 373.65353,660.67551 373.32703,660.47372 373.55746,658.67771 374.677,652.69844 375.47166,648.45429 376.19316,644.79187 376.28033,644.55973 376.40091,644.23862 378.32821,644.13766 384.33761,644.13766 L 392.23639,644.13766 392.23639,646.83891 392.23639,649.54015 386.50268,649.54015 C 380.83097,649.54015 380.76716,649.54837 380.60268,650.29988 380.15355,652.35192 379.76145,655.07352 379.89561,655.20769 379.9785,655.29057 380.53257,655.18887 381.1269,654.98169 382.99522,654.33039 386.13601,654.52246 388.02856,655.40375 390.16473,656.39848 392.36292,658.85991 393.10183,661.08457 393.94913,663.63555 393.65349,668.0635 392.48372,670.34232 391.28951,672.66876 388.5794,675.05857 386.40215,675.70515 384.14481,676.37551 380.99774,676.33486 378.89638,675.60821 z"
       id="path3926"
       inkscape:connector-curvature="0" />
    <path
       style="fill:#000000;fill-opacity:1;stroke:none"
       d="M 710.6459,423.31067 C 710.6459,412.72557 710.51651,411.01157 709.80446,412.16367 709.43222,412.76597 706.6103,414.56167 704.72732,415.39437 L 702.87981,416.21147 702.88061,413.59887 702.88141,410.98627 704.79633,409.98567 C 707.23999,408.70867 710.4316,405.76067 711.21809,404.05397 L 711.82769,402.73117 714.2757,402.72247 716.7237,402.71367 716.7237,418.75237 716.7237,434.79097 713.6848,434.79097 710.6459,434.79097 710.6459,423.31067 z"
       id="path3928"
       inkscape:connector-curvature="0" />
    <path
       style="fill:#000000;fill-opacity:1;stroke:none"
       d="M 734.78829,435.17217 C 731.61546,434.34217 728.74058,431.70597 727.5562,428.54037 725.5513,423.18177 725.76719,413.78537 728.00385,409.05747 729.04739,406.85157 731.32467,404.62657 733.54318,403.64517 735.42965,402.81077 739.19459,402.66837 741.17534,403.35657 743.1968,404.05897 745.28449,406.18357 746.10304,408.37127 746.87642,410.43837 746.71926,410.80247 745.04951,410.81227 744.56472,410.81517 743.50111,410.90077 742.68592,411.00267 741.21151,411.18687 741.20022,411.18027 740.52844,409.73647 740.02601,408.65657 739.56737,408.19267 738.73684,407.92417 735.29042,406.81027 733.13543,409.23277 732.41036,415.03607 L 732.16974,416.96187 733.61547,415.91457 C 737.12954,413.36907 741.30676,413.83247 744.47924,417.11987 746.43062,419.14197 747.24595,421.30197 747.26218,424.49247 747.28655,429.28407 745.50595,432.52487 741.87218,434.30267 739.9045,435.26537 736.66483,435.66297 734.78829,435.17217 z M 740.10825,429.43257 C 742.29988,427.30097 742.16285,421.81157 739.86482,419.68087 737.78028,417.74817 734.78382,418.34397 733.43092,420.96017 732.79665,422.18677 732.77615,426.00897 733.39608,427.45787 733.93442,428.71607 735.49869,430.26157 736.47657,430.50147 737.67504,430.79557 739.15466,430.36007 740.10825,429.43257 z"
       id="path3930"
       inkscape:connector-curvature="0" />
    <path
       style="fill:#000000;fill-opacity:1;stroke:none"
       d="M 672.82844,919.89084 C 672.82844,909.30574 672.69905,907.59174 671.987,908.74384 671.61476,909.34614 668.79284,911.14184 666.90986,911.97454 L 665.06235,912.79164 665.06315,910.17904 665.06395,907.56644 666.97887,906.56584 C 669.42253,905.28884 672.61414,902.34084 673.40063,900.63414 L 674.01023,899.31134 676.45824,899.30254 678.90624,899.29384 678.90624,915.33254 678.90624,931.37114 675.86734,931.37114 672.82844,931.37114 672.82844,919.89084 z"
       id="path3936"
       inkscape:connector-curvature="0" />
    <path
       style="fill:#000000;fill-opacity:1;stroke:none"
       d="M 692.75013,930.23364 C 692.75013,928.12124 693.78707,923.11914 694.93979,919.67094 696.31627,915.55344 698.32686,911.45544 700.55873,908.21834 701.4639,906.90554 702.2045,905.72794 702.2045,905.60154 702.2045,905.47514 699.08962,905.37164 695.28255,905.37164 L 688.36061,905.37164 688.36061,902.67044 688.36061,899.96914 698.82794,899.96914 709.29527,899.96914 709.29527,902.10514 C 709.29527,903.96854 709.18354,904.34544 708.41944,905.05954 707.29682,906.10884 704.26214,910.68914 702.95543,913.30664 700.6602,917.90414 698.49028,925.77754 698.49028,929.50814 L 698.49028,931.37114 695.62021,931.37114 692.75013,931.37114 692.75013,930.23364 z"
       id="path3938"
       inkscape:connector-curvature="0" />
    <path
       style="fill:#000000;fill-opacity:1;stroke:none"
       d="M 737.65837,727.58491 737.65837,715.92481 735.88567,717.24921 C 734.10559,718.57911 730.89266,720.33621 730.24116,720.33621 730.0326,720.33621 729.89228,719.33391 729.89228,717.84411 L 729.89228,715.35191 731.75726,714.40831 C 734.22023,713.16221 737.37409,710.27191 738.15108,708.54881 L 738.7739,707.16771 741.25503,707.16771 743.73617,707.16771 743.73617,723.20631 743.73617,739.24501 740.69727,739.24501 737.65837,739.24501 737.65837,727.58491 z"
       id="path3940"
       inkscape:connector-curvature="0" />
    <path
       style="fill:#000000;fill-opacity:1;stroke:none"
       d="M 761.00303,739.57571 C 757.53589,738.84961 754.3061,736.04861 753.49979,733.06861 753.28834,732.28711 753.18713,730.63351 753.27488,729.39381 753.47621,726.54931 754.61641,724.48371 756.72154,723.14971 757.55159,722.62371 758.22698,722.11741 758.22241,722.02451 758.21785,721.93171 757.58611,721.39981 756.81856,720.84261 754.74542,719.33761 754.03219,717.90381 754.04717,715.27141 754.06159,712.73671 754.8888,710.82641 756.59305,709.39241 758.48842,707.79761 759.85078,707.38761 763.34409,707.36111 766.2998,707.33861 766.74289,707.42301 768.53415,708.34951 771.42336,709.84381 772.55958,711.57821 772.71911,714.73731 772.87004,717.72601 772.09561,719.54111 770.0728,720.93991 769.34434,721.44361 768.74257,721.93511 768.73552,722.03221 768.72847,722.12921 769.26663,722.50151 769.93143,722.85961 772.52122,724.25421 773.84713,726.72531 773.84713,730.15711 773.84713,734.08651 771.75879,737.42381 768.39423,738.87121 766.51893,739.67791 763.0636,740.00731 761.00303,739.57571 z M 765.65517,734.60171 C 767.40403,733.70631 768.11092,732.11351 767.97256,729.37991 767.87324,727.41761 767.72526,726.97371 766.8744,726.08561 765.63884,724.79591 763.92868,724.28921 762.2959,724.72881 758.33664,725.79491 757.67061,732.02891 761.2598,734.42661 762.63359,735.34441 764.09107,735.40241 765.65517,734.60171 z M 765.76472,719.26571 C 767.16697,718.54931 767.81154,715.59241 766.96869,713.74251 765.90712,711.41261 761.16964,711.29231 759.95366,713.56441 759.33713,714.71641 759.53327,717.45151 760.30255,718.42951 761.40519,719.83121 763.90786,720.21441 765.76472,719.26571 z"
       id="path3942"
       inkscape:connector-curvature="0" />
    <path
       style="fill:#000000;fill-opacity:1;stroke:none"
       d="M 643.11472,521.94634 643.11472,510.28014 641.00437,511.77424 C 638.81011,513.32774 637.40244,514.11574 636.10836,514.51494 635.36714,514.74364 635.34863,514.68754 635.34863,512.21394 L 635.34863,509.67854 637.311,508.63264 C 639.96945,507.21574 642.48226,504.95294 643.47457,503.08244 L 644.29535,501.53524 646.74394,501.53524 649.19252,501.53524 649.19252,517.57394 649.19252,533.61254 646.15362,533.61254 643.11472,533.61254 643.11472,521.94634 z"
       id="path3944"
       inkscape:connector-curvature="0" />
    <path
       style="fill:#000000;fill-opacity:1;stroke:none"
       d="M 664.13004,533.49944 C 662.32785,532.84584 660.65446,531.27584 659.79676,529.43374 658.68828,527.05314 658.71934,526.18494 659.9131,526.18114 660.4238,526.17954 661.62899,526.08364 662.5913,525.96804 L 664.34095,525.75784 664.83481,526.93984 C 665.46258,528.44224 666.57747,529.22334 668.09197,529.22174 669.68066,529.22004 671.23531,528.22124 671.93092,526.75544 672.54474,525.46184 673.16609,522.61494 673.16609,521.09604 L 673.16609,520.15194 671.44388,521.31094 C 668.23867,523.46784 663.36476,522.69444 660.75975,519.61534 660.28115,519.04974 659.51685,517.77604 659.0613,516.78504 658.31922,515.17064 658.24786,514.64364 658.37558,511.72014 658.5788,507.06814 659.94376,504.63294 663.43055,502.70144 665.05228,501.80314 665.53309,501.70434 668.27008,501.70644 670.77037,501.70844 671.56166,501.84354 672.73463,502.46824 677.40737,504.95724 679.22608,509.21014 679.23803,517.67604 679.24452,522.27494 678.63248,525.72594 677.36338,528.24634 676.34901,530.26094 673.58664,532.73044 671.58453,533.41264 669.74951,534.03794 665.74332,534.08454 664.13004,533.49944 z M 671.15299,517.22394 C 672.52479,515.90964 673.07831,513.31424 672.51942,510.81684 671.40696,505.84584 666.58206,504.67704 664.42923,508.85704 663.83549,510.00984 663.95362,514.56884 664.61325,515.95884 665.83491,518.53334 669.1225,519.16924 671.15299,517.22394 z"
       id="path3946"
       inkscape:connector-curvature="0" />
  </g>
</svg>
